<svg xmlns="http://www.w3.org/2000/svg" width="25.25" height="25.625" viewBox="0 0 25.25 25.625">
  <metadata><?xpacket begin="﻿" id="W5M0MpCehiHzreSzNTczkc9d"?>
<x:xmpmeta xmlns:x="adobe:ns:meta/" x:xmptk="Adobe XMP Core 5.6-c142 79.160924, 2017/07/13-01:06:39        ">
   <rdf:RDF xmlns:rdf="http://www.w3.org/1999/02/22-rdf-syntax-ns#">
      <rdf:Description rdf:about=""/>
   </rdf:RDF>
</x:xmpmeta>
                                                                                                    
                                                                                                    
                                                                                                    
                                                                                                    
                                                                                                    
                                                                                                    
                                                                                                    
                                                                                                    
                                                                                                    
                                                                                                    
                                                                                                    
                                                                                                    
                                                                                                    
                                                                                                    
                                                                                                    
                                                                                                    
                                                                                                    
                                                                                                    
                                                                                                    
                                                                                                    
                           
<?xpacket end="w"?></metadata>
<defs>
    <style>
      .cls-1 {
        fill: #fff;
        fill-rule: evenodd;
      }
    </style>
  </defs>
  <path id="instagram" class="cls-1" d="M471.705,117.563a2.63,2.63,0,1,0,2.591,2.63A2.614,2.614,0,0,0,471.705,117.563Zm3.212-4.136h-6.559a3.418,3.418,0,0,0-3.39,3.438v6.655a3.419,3.419,0,0,0,3.39,3.439h6.559a3.419,3.419,0,0,0,3.389-3.439v-6.655A3.418,3.418,0,0,0,474.917,113.427ZM471.705,124.3a4.105,4.105,0,1,1,4.046-4.105A4.081,4.081,0,0,1,471.705,124.3Zm4.282-7.509a0.977,0.977,0,1,1,.963-0.977A0.97,0.97,0,0,1,475.987,116.789Zm-4.35-9.386a12.809,12.809,0,1,0,12.624,12.808A12.717,12.717,0,0,0,471.637,107.4Zm8.215,16.117a4.977,4.977,0,0,1-4.935,5.007h-6.559a4.977,4.977,0,0,1-4.935-5.007v-6.655a4.977,4.977,0,0,1,4.935-5.006h6.559a4.977,4.977,0,0,1,4.935,5.006v6.655Z" transform="translate(-459 -107.406)"/>
</svg>
