<svg xmlns="http://www.w3.org/2000/svg" width="556" height="57.25" viewBox="0 0 556 57.25">
  <metadata><?xpacket begin="﻿" id="W5M0MpCehiHzreSzNTczkc9d"?>
<x:xmpmeta xmlns:x="adobe:ns:meta/" x:xmptk="Adobe XMP Core 5.6-c142 79.160924, 2017/07/13-01:06:39        ">
   <rdf:RDF xmlns:rdf="http://www.w3.org/1999/02/22-rdf-syntax-ns#">
      <rdf:Description rdf:about=""/>
   </rdf:RDF>
</x:xmpmeta>
                                                                                                    
                                                                                                    
                                                                                                    
                                                                                                    
                                                                                                    
                                                                                                    
                                                                                                    
                                                                                                    
                                                                                                    
                                                                                                    
                                                                                                    
                                                                                                    
                                                                                                    
                                                                                                    
                                                                                                    
                                                                                                    
                                                                                                    
                                                                                                    
                                                                                                    
                                                                                                    
                           
<?xpacket end="w"?></metadata>
<defs>
    <style>
      .cls-1 {
        fill: #fff;
        fill-rule: evenodd;
      }
    </style>
  </defs>
  <path id="Odvezi_se_u_veli_anstva_prirode_" data-name="Odvezi se u veli`anstva prirode!" class="cls-1" d="M926.235,165.333a2.547,2.547,0,0,1,.676-0.089,3.648,3.648,0,0,1,2.939,1.333,5.135,5.135,0,0,1,1.116,3.408,17,17,0,0,1-2.116,7.23,53.568,53.568,0,0,1-6,9.185,36.559,36.559,0,0,1-5.466,5.778q-2.528,2.044-4.055,2.045a1.972,1.972,0,0,1-1.617-.771,3.325,3.325,0,0,1-.617-2.133,8.712,8.712,0,0,1,.323-2.133,26.758,26.758,0,0,1,.911-2.786,34.546,34.546,0,0,1,2.293-4.859,48.414,48.414,0,0,1,3.35-4.978q0.882-1.125,1.793-2.341t1.792-2.281q0.882-1.068,1.675-1.986t1.382-1.57a7.087,7.087,0,0,0,.881-1.126,1.676,1.676,0,0,0,.235-0.83,1.709,1.709,0,0,0-.294-0.889C925.754,165.462,926.019,165.392,926.235,165.333Zm-7.876,2.578c-0.176.2-.422,0.454-0.735,0.77q-0.647.653-1.41,1.541t-1.558,1.837q-0.793.948-1.5,1.9l-1.234,1.66a45.469,45.469,0,0,0-5.114,9.067,21.292,21.292,0,0,0-1.822,7.941,7.914,7.914,0,0,0,1.881,5.481,6.309,6.309,0,0,0,4.937,2.1,12.644,12.644,0,0,0,6.289-2.044,32.208,32.208,0,0,0,7.053-5.9,49.9,49.9,0,0,0,4.791-5.867,52.459,52.459,0,0,0,3.7-6.133,34.964,34.964,0,0,0,2.41-5.926,18.767,18.767,0,0,0,.853-5.3,9.418,9.418,0,0,0-.676-3.526,9.947,9.947,0,0,0-1.852-2.993q-2.7-2.9-7.934-2.9a17.441,17.441,0,0,0-4.085.474,15.232,15.232,0,0,0-3.5,1.274,8.679,8.679,0,0,0-2.439,1.808,3.143,3.143,0,0,0-.911,2.133,2.14,2.14,0,0,0,.617,1.571,2.032,2.032,0,0,0,1.5.622,3.374,3.374,0,0,0,.617-0.059,6.563,6.563,0,0,0,.853-0.237A8.957,8.957,0,0,0,918.359,167.911Zm28.476,13.452-1.939,3.911q-1.118,2.253-1.881,3.7t-1.234,2.282q-1.411,2.253-2.586,2.252-0.942,0-.941-1.363a10.071,10.071,0,0,1,.97-3.852,21.793,21.793,0,0,1,2.5-4.326,10.279,10.279,0,0,1,2.086-2.252,3.314,3.314,0,0,1,1.969-.652,2.151,2.151,0,0,1,1.058.3h0Zm-0.646-5.1a8.375,8.375,0,0,0-3.938,1.1,12.24,12.24,0,0,0-3.644,2.993,22.981,22.981,0,0,0-4.085,6.37,16.807,16.807,0,0,0-1.44,6.549,6.007,6.007,0,0,0,1.205,3.911,3.922,3.922,0,0,0,3.2,1.481,5.6,5.6,0,0,0,3.35-1.214,10.348,10.348,0,0,0,2.821-3.289,4.648,4.648,0,0,0,1,2.844,3.033,3.033,0,0,0,2.409,1.008q2.88,0,6.583-4.682,0.764-1.006,1.44-2.015a21.629,21.629,0,0,0,1.146-1.9,16.618,16.618,0,0,0,.764-1.63,3.41,3.41,0,0,0,.294-1.156,1.451,1.451,0,0,0-.411-1.066,1.359,1.359,0,0,0-1-.415,1.715,1.715,0,0,0-1.117.444,8.823,8.823,0,0,0-1.352,1.63q-0.588.831-1.381,1.9a15.435,15.435,0,0,1-1.264,1.541,4.825,4.825,0,0,1-.911.741,1.57,1.57,0,0,1-.793.267q-0.823,0-.823-1.126a10.07,10.07,0,0,1,.764-3.023q0.764-1.954,1.91-4.474t2.557-5.185q0.822-1.54,1.469-2.756t1.235-2.252q0.586-1.037,1.146-1.956t1.205-1.926a8.164,8.164,0,0,0,.793-1.422,2.945,2.945,0,0,0,.206-1.066,1.955,1.955,0,0,0-.588-1.423,1.92,1.92,0,0,0-1.411-.592,2.937,2.937,0,0,0-2.145,1.126,21.207,21.207,0,0,0-2.557,3.97q-0.647,1.245-1.116,2.133t-0.882,1.689q-0.413.8-.823,1.66t-1,1.985a5.418,5.418,0,0,0-2.821-.77h0Zm23.157,11.822a5.3,5.3,0,0,0,1,.089,5.533,5.533,0,0,0,2.175-.474,8.45,8.45,0,0,0,2.057-1.244,7.226,7.226,0,0,0,1.528-1.689,3.352,3.352,0,0,0,.588-1.808,1.428,1.428,0,0,0-.441-1.037,1.344,1.344,0,0,0-.97-0.444,2.06,2.06,0,0,0-.382.029,1.01,1.01,0,0,0-.353.178q-0.206.149-.558,0.415t-0.94.741a3.634,3.634,0,0,1-2.234.948,3.007,3.007,0,0,1-.588-0.059,9.815,9.815,0,0,0,1-2.578,11.687,11.687,0,0,0,.352-2.756,3.708,3.708,0,0,0-.47-1.956,1.451,1.451,0,0,0-1.293-.77,2.375,2.375,0,0,0-1.5.593A6.213,6.213,0,0,0,967,177.778a8.164,8.164,0,0,0-.941,2.133,8.786,8.786,0,0,0-.352,2.46v0.711a6.016,6.016,0,0,0,.117,1.007A8.993,8.993,0,0,1,965,185.6q-0.528.8-1.351,1.867a21.276,21.276,0,0,1-1.911,2.252,2.05,2.05,0,0,1-1.322.711,0.612,0.612,0,0,1-.5-0.267,0.988,0.988,0,0,1-.205-0.622,6.432,6.432,0,0,1,.47-1.955,19.13,19.13,0,0,1,1.175-2.608l1.528-3.022a12.576,12.576,0,0,0,1.029-2.489,7.97,7.97,0,0,0,.382-2.134,2.093,2.093,0,0,0-.588-1.54,1.916,1.916,0,0,0-1.41-.593,2.057,2.057,0,0,0-1.381.474,4.21,4.21,0,0,0-1.029,1.719q-0.352.829-.705,1.689a14.932,14.932,0,0,1-.823,1.689l-2,4.148a25.853,25.853,0,0,0-1.44,3.763,11.525,11.525,0,0,0-.5,3.111,4.719,4.719,0,0,0,1.087,3.171,3.444,3.444,0,0,0,2.733,1.274,7.923,7.923,0,0,0,5-2.252,24.433,24.433,0,0,0,5-6.223A7.093,7.093,0,0,0,969.346,188.089Zm11.49-5.185a3.341,3.341,0,0,1,1.852-1.185,0.58,0.58,0,0,1,.587.711,2.3,2.3,0,0,1-.352,1.185,4.736,4.736,0,0,1-.911,1.1,4.554,4.554,0,0,1-1.234.8,3.261,3.261,0,0,1-1.323.3,1.965,1.965,0,0,1-.382-0.03c-0.1-.019-0.226-0.049-0.382-0.089A13.4,13.4,0,0,1,980.836,182.9Zm-3.056,7.2a3.037,3.037,0,0,0,.793.089,7.6,7.6,0,0,0,3.351-.8,10.276,10.276,0,0,0,2.909-2.1,11.1,11.1,0,0,0,2.057-2.963,7.748,7.748,0,0,0,.794-3.378,4.073,4.073,0,0,0-1.058-2.9,3.621,3.621,0,0,0-2.763-1.126,7.71,7.71,0,0,0-4.2,1.393,16.71,16.71,0,0,0-3.909,3.585,20.151,20.151,0,0,0-2.88,4.86,13.459,13.459,0,0,0-1.117,5.215,6.044,6.044,0,0,0,1.617,4.356,5.554,5.554,0,0,0,4.2,1.689,10.7,10.7,0,0,0,4.879-1.334,17.929,17.929,0,0,0,4.819-3.7,16.9,16.9,0,0,0,2.381-3.052,5.19,5.19,0,0,0,.852-2.518,1.758,1.758,0,0,0-.441-1.245,1.431,1.431,0,0,0-1.087-.474,1.938,1.938,0,0,0-1.47.889l-1.234,1.659a14.862,14.862,0,0,1-3.732,3.556,7.092,7.092,0,0,1-3.732,1.422,2.573,2.573,0,0,1-1.676-.5,1.837,1.837,0,0,1-.617-1.512,2.008,2.008,0,0,1,.088-0.622,4.063,4.063,0,0,1,.324-0.681Q977.456,190.016,977.78,190.1Zm19.66,0.445q0.586-.77,1.469-1.719c0.431-.474.843-0.9,1.231-1.274s0.83-.77,1.3-1.185,1.01-.879,1.61-1.393,1.34-1.106,2.21-1.778c0.23-.2.47-0.394,0.7-0.592s0.51-.415.83-0.652c0.31-.276.55-0.484,0.73-0.623s0.31-.246.41-0.325,0.18-.138.24-0.178a1.363,1.363,0,0,0,.2-0.178,3.022,3.022,0,0,0,1.06-2.074,2.121,2.121,0,0,0-.62-1.6,2.229,2.229,0,0,0-1.61-.593,13.059,13.059,0,0,0-2.06.178c-1.14.2-2.2,0.355-3.2,0.474a25.649,25.649,0,0,1-3.031.178,5.481,5.481,0,0,1-.587-0.03q-0.3-.029-0.588-0.029c-0.392-.039-0.726-0.06-1-0.06h-0.647a2.851,2.851,0,0,0-1.91.623,2.031,2.031,0,0,0-.735,1.629,2.085,2.085,0,0,0,.97,1.837,4.861,4.861,0,0,0,2.733.652,11.839,11.839,0,0,0,1.44-.089l1.734-.207-1,.83q-1.234,1.066-2.057,1.807t-1.44,1.333q-0.618.594-1.117,1.126t-1.029,1.126a25.654,25.654,0,0,0-2.968,4.119,6.343,6.343,0,0,0-.911,2.874,2.823,2.823,0,0,0,2.88,2.845,3.612,3.612,0,0,0,1.646-.356l2-.889a4.369,4.369,0,0,1,1.94-.355,10.312,10.312,0,0,1,2.237.3,7.485,7.485,0,0,0,.91.178,5.337,5.337,0,0,0,.67.059,2.155,2.155,0,0,0,1.62-.711,2.409,2.409,0,0,0,.68-1.719,2.444,2.444,0,0,0-1-2.015,4.343,4.343,0,0,0-2.71-.77,11.863,11.863,0,0,0-2.084.207,15.173,15.173,0,0,0-2.322.623Q996.852,191.32,997.44,190.549Zm27.04-23.379a2.033,2.033,0,0,0-1.53-.622,3.473,3.473,0,0,0-1.62.415,5,5,0,0,0-1.41,1.1,6.885,6.885,0,0,0-1.03,1.511,3.767,3.767,0,0,0-.41,1.659,1.932,1.932,0,0,0,.65,1.482,2.263,2.263,0,0,0,1.59.593,3.538,3.538,0,0,0,1.55-.386,4.766,4.766,0,0,0,1.41-1.037,5.532,5.532,0,0,0,1-1.452,3.666,3.666,0,0,0,.38-1.629A2.28,2.28,0,0,0,1024.48,167.17Zm-4.82,19.171a1.693,1.693,0,0,0-1.06.356,11.231,11.231,0,0,0-1.47,1.54c-0.31.317-.7,0.692-1.15,1.126s-0.85.811-1.2,1.126a4.58,4.58,0,0,1-1.09.8,1.98,1.98,0,0,1-.85.208,0.86,0.86,0,0,1-.94-1.008q0-1.778,3.7-6.4a7.29,7.29,0,0,0,.88-1.333,2.654,2.654,0,0,0,.24-1.156,2.207,2.207,0,0,0-.59-1.57,1.933,1.933,0,0,0-1.47-.623,2.919,2.919,0,0,0-1.94.83,14.947,14.947,0,0,0-2.23,2.726q-3.825,5.81-3.82,9.541a4.447,4.447,0,0,0,1.14,3.171,3.845,3.845,0,0,0,2.91,1.215,7.559,7.559,0,0,0,3.62-1.1,16.1,16.1,0,0,0,3.85-3.111,9.7,9.7,0,0,0,1.09-1.333c0.33-.494.63-0.958,0.91-1.393a6.211,6.211,0,0,0,.61-1.215,2.768,2.768,0,0,0,.21-0.918,1.327,1.327,0,0,0-1.35-1.482h0Zm32.06-12a6.111,6.111,0,0,0-4.09-1.274,12.875,12.875,0,0,0-6.7,2.074q-4.29,2.666-4.29,6.637a6.488,6.488,0,0,0,.5,2.578,13.377,13.377,0,0,0,1.91,2.874c0.47,0.632.85,1.136,1.15,1.511a9.839,9.839,0,0,1,.65.919,2.739,2.739,0,0,1,.26.592,2.186,2.186,0,0,1,.06.534,1.581,1.581,0,0,1-.62,1.274,2.38,2.38,0,0,1-1.56.5,2.68,2.68,0,0,1-1.73-.593,3.149,3.149,0,0,1-1.03-1.659,3.278,3.278,0,0,1-.17-0.5,1.311,1.311,0,0,1-.06-0.267l0.11-2.311a1.03,1.03,0,0,0-.47-0.919,1.7,1.7,0,0,0-1.11-.444,2.4,2.4,0,0,0-2.06,1.274,5.721,5.721,0,0,0-.82,3.171,7.012,7.012,0,0,0,.56,2.844,6.623,6.623,0,0,0,1.52,2.222,7.184,7.184,0,0,0,2.3,1.452,7.691,7.691,0,0,0,2.91.534,7.911,7.911,0,0,0,5.08-1.837,6.1,6.1,0,0,0,1.53-1.986,5.484,5.484,0,0,0,.56-2.4,6.078,6.078,0,0,0-.56-2.489,13.955,13.955,0,0,0-1.85-2.844,14.587,14.587,0,0,1-1.74-2.4,3.841,3.841,0,0,1-.44-1.749,2.713,2.713,0,0,1,.44-1.422,4.691,4.691,0,0,1,1.15-1.244,6.779,6.779,0,0,1,1.61-.889,5.1,5.1,0,0,1,1.86-.356,1.553,1.553,0,0,1,.97.3,0.944,0.944,0,0,1,.38.771,1.656,1.656,0,0,1-.38.978,2.821,2.821,0,0,1-.97.8l-1.12.592a1.982,1.982,0,0,0-1.12,1.778,1.933,1.933,0,0,0,.65,1.482,2.262,2.262,0,0,0,1.59.592,4.722,4.722,0,0,0,2.29-.652,8.617,8.617,0,0,0,2.14-1.689,9.148,9.148,0,0,0,1.59-2.311,5.766,5.766,0,0,0,.62-2.518A4.379,4.379,0,0,0,1051.72,174.341Zm8.05,8.563a3.335,3.335,0,0,1,1.85-1.185,0.583,0.583,0,0,1,.59.711,2.342,2.342,0,0,1-.35,1.185,4.914,4.914,0,0,1-.91,1.1,4.694,4.694,0,0,1-1.24.8,3.247,3.247,0,0,1-1.32.3,1.943,1.943,0,0,1-.38-0.03c-0.1-.019-0.23-0.049-0.38-0.089A13.277,13.277,0,0,1,1059.77,182.9Zm-3.06,7.2a3.089,3.089,0,0,0,.8.089,7.622,7.622,0,0,0,3.35-.8,10.467,10.467,0,0,0,2.91-2.1,10.916,10.916,0,0,0,2.05-2.963,7.742,7.742,0,0,0,.8-3.378,4.052,4.052,0,0,0-1.06-2.9,3.615,3.615,0,0,0-2.76-1.126,7.709,7.709,0,0,0-4.2,1.393,16.424,16.424,0,0,0-3.91,3.585,19.833,19.833,0,0,0-2.88,4.86,13.356,13.356,0,0,0-1.12,5.215,6.033,6.033,0,0,0,1.62,4.356,5.529,5.529,0,0,0,4.2,1.689,10.71,10.71,0,0,0,4.88-1.334,18,18,0,0,0,4.82-3.7,16.89,16.89,0,0,0,2.38-3.052,5.259,5.259,0,0,0,.85-2.518,1.775,1.775,0,0,0-.44-1.245,1.446,1.446,0,0,0-1.09-.474,1.938,1.938,0,0,0-1.47.889l-1.23,1.659a14.888,14.888,0,0,1-3.73,3.556,7.131,7.131,0,0,1-3.74,1.422,2.563,2.563,0,0,1-1.67-.5,1.842,1.842,0,0,1-.62-1.512,1.947,1.947,0,0,1,.09-0.622,4.725,4.725,0,0,1,.32-0.681C1056.22,189.976,1056.5,190.045,1056.71,190.1Zm33.1,3.141a2.533,2.533,0,0,0-.03.5,3.679,3.679,0,0,0,.94,2.578,3.1,3.1,0,0,0,2.41,1.037,6.819,6.819,0,0,0,3.64-1.245,18.818,18.818,0,0,0,4-3.674,19.206,19.206,0,0,0,2.29-3.23,5.551,5.551,0,0,0,.82-2.518,1.534,1.534,0,0,0-.38-1.067,1.274,1.274,0,0,0-.97-0.415,2.647,2.647,0,0,0-1.88,1.245l-1.71,2.192c-1.6,1.976-2.78,2.963-3.52,2.963a0.722,0.722,0,0,1-.59-0.3,1.18,1.18,0,0,1-.23-0.77,5.487,5.487,0,0,1,.61-2.163,34.832,34.832,0,0,1,2.03-3.586c0.47-.75.85-1.363,1.15-1.837a11.36,11.36,0,0,0,.67-1.215,4.808,4.808,0,0,0,.33-0.859,3.444,3.444,0,0,0,.08-0.711,1.908,1.908,0,0,0-1.99-2.015,3.09,3.09,0,0,0-2.53,1.837l-2,3.141c-0.67,1.067-1.37,2.133-2.12,3.2a30.186,30.186,0,0,1-2.11,2.726,3.143,3.143,0,0,1-2,1.363c-0.47,0-.71-0.316-0.71-0.948a8.589,8.589,0,0,1,1.06-3.615,35.057,35.057,0,0,1,3-4.8,10.449,10.449,0,0,0,1.2-1.837,2.968,2.968,0,0,0,.27-1.245,1.813,1.813,0,0,0-.56-1.363,1.916,1.916,0,0,0-1.38-.533q-1.995,0-5.06,4.622a28.866,28.866,0,0,0-2.99,5.837,15.451,15.451,0,0,0-1.12,5.364,4.868,4.868,0,0,0,1.12,3.348,3.574,3.574,0,0,0,2.82,1.274,5.025,5.025,0,0,0,2.88-.919,10.671,10.671,0,0,0,2.7-2.933A2.5,2.5,0,0,0,1089.81,193.245Zm39.23-5.156a5.24,5.24,0,0,0,1,.089,5.51,5.51,0,0,0,2.17-.474,8.6,8.6,0,0,0,2.06-1.244,7.56,7.56,0,0,0,1.53-1.689,3.347,3.347,0,0,0,.58-1.808,1.4,1.4,0,0,0-.44-1.037,1.326,1.326,0,0,0-.97-0.444,2.113,2.113,0,0,0-.38.029,1.009,1.009,0,0,0-.35.178c-0.14.1-.32,0.237-0.56,0.415s-0.55.425-.94,0.741a3.627,3.627,0,0,1-2.23.948,2.952,2.952,0,0,1-.59-0.059,9.992,9.992,0,0,0,1-2.578,11.947,11.947,0,0,0,.35-2.756,3.736,3.736,0,0,0-.47-1.956,1.44,1.44,0,0,0-1.29-.77,2.377,2.377,0,0,0-1.5.593,6.186,6.186,0,0,0-1.32,1.511,7.754,7.754,0,0,0-.94,2.133,8.617,8.617,0,0,0-.36,2.46v0.711a5.978,5.978,0,0,0,.12,1.007,9.493,9.493,0,0,1-.82,1.511q-0.54.8-1.35,1.867a23.267,23.267,0,0,1-1.91,2.252,2.09,2.09,0,0,1-1.33.711,0.626,0.626,0,0,1-.5-0.267,1.027,1.027,0,0,1-.2-0.622,6.254,6.254,0,0,1,.47-1.955,18.731,18.731,0,0,1,1.17-2.608l1.53-3.022a12.949,12.949,0,0,0,1.03-2.489,8.117,8.117,0,0,0,.38-2.134,2.063,2.063,0,0,0-.59-1.54,1.91,1.91,0,0,0-1.41-.593,2.051,2.051,0,0,0-1.38.474,4.322,4.322,0,0,0-1.03,1.719c-0.23.553-.47,1.116-0.7,1.689a16.4,16.4,0,0,1-.82,1.689l-2,4.148a24.962,24.962,0,0,0-1.44,3.763,11.223,11.223,0,0,0-.5,3.111,4.691,4.691,0,0,0,1.09,3.171,3.424,3.424,0,0,0,2.73,1.274,7.918,7.918,0,0,0,4.99-2.252,24.334,24.334,0,0,0,5-6.223A6.91,6.91,0,0,0,1129.04,188.089Zm11.49-5.185a3.335,3.335,0,0,1,1.85-1.185,0.583,0.583,0,0,1,.59.711,2.263,2.263,0,0,1-.36,1.185,4.657,4.657,0,0,1-.91,1.1,4.488,4.488,0,0,1-1.23.8,3.247,3.247,0,0,1-1.32.3,2.057,2.057,0,0,1-.39-0.03c-0.09-.019-0.22-0.049-0.38-0.089A13.313,13.313,0,0,1,1140.53,182.9Zm-3.06,7.2a3.061,3.061,0,0,0,.79.089,7.558,7.558,0,0,0,3.35-.8,10.183,10.183,0,0,0,2.91-2.1,10.95,10.95,0,0,0,2.06-2.963,7.728,7.728,0,0,0,.79-3.378,4.089,4.089,0,0,0-1.05-2.9,3.637,3.637,0,0,0-2.77-1.126,7.709,7.709,0,0,0-4.2,1.393,16.813,16.813,0,0,0-3.91,3.585,20.48,20.48,0,0,0-2.88,4.86,13.519,13.519,0,0,0-1.11,5.215,6.069,6.069,0,0,0,1.61,4.356,5.566,5.566,0,0,0,4.21,1.689,10.673,10.673,0,0,0,4.87-1.334,17.84,17.84,0,0,0,4.82-3.7,16.451,16.451,0,0,0,2.38-3.052,5.181,5.181,0,0,0,.86-2.518,1.775,1.775,0,0,0-.44-1.245,1.446,1.446,0,0,0-1.09-.474,1.938,1.938,0,0,0-1.47.889l-1.24,1.659a14.721,14.721,0,0,1-3.73,3.556,7.074,7.074,0,0,1-3.73,1.422,2.592,2.592,0,0,1-1.68-.5,1.837,1.837,0,0,1-.61-1.512,1.947,1.947,0,0,1,.09-0.622,3.235,3.235,0,0,1,.32-0.681C1136.97,189.976,1137.26,190.045,1137.47,190.1Zm17.6-6.607c0.16-.4.35-0.81,0.56-1.245s0.47-.938.77-1.511,0.65-1.254,1.08-2.045q1.065-2.013,1.65-3.081t1.23-2.074a35.515,35.515,0,0,1,2.77-4.119c0.78-.968,1.37-1.452,1.76-1.452a0.427,0.427,0,0,1,.41.533,4.657,4.657,0,0,1-.38,1.512c-0.26.651-.59,1.4-1,2.252s-0.89,1.738-1.44,2.666-1.14,1.828-1.76,2.7a37.137,37.137,0,0,1-2.82,3.674c-0.95,1.067-2.04,2.193-3.3,3.378C1154.76,184.287,1154.92,183.892,1155.07,183.5Zm3.62,2.074a44.974,44.974,0,0,0,4.73-5.452,43.706,43.706,0,0,0,2.65-4.089,44.461,44.461,0,0,0,2.02-4.03,26.733,26.733,0,0,0,1.33-3.734,12.624,12.624,0,0,0,.47-3.14,3.478,3.478,0,0,0-.65-2.193,2.114,2.114,0,0,0-1.76-.83,5.29,5.29,0,0,0-2.68.859,17.78,17.78,0,0,0-3.32,2.756,35.389,35.389,0,0,0-2.91,3.408q-1.56,2.044-3.08,4.444t-2.94,4.919a51.5,51.5,0,0,0-2.41,4.83,38.835,38.835,0,0,0-2,5.244,14.964,14.964,0,0,0-.59,4,5.753,5.753,0,0,0,1.35,4.029,4.626,4.626,0,0,0,3.59,1.482q3.705,0,8.05-4.563,0.885-.948,1.68-1.986t1.38-1.985a12.238,12.238,0,0,0,.91-1.748,3.826,3.826,0,0,0,.32-1.333,1.616,1.616,0,0,0-.35-1.067,1.183,1.183,0,0,0-.94-0.415,2.8,2.8,0,0,0-1.94,1.3l-1,1.185q-4.11,5.275-6.17,5.274a1.534,1.534,0,0,1-1.15-.533,1.708,1.708,0,0,1-.5-1.185v-0.237a0.657,0.657,0,0,1,.06-0.3A58.854,58.854,0,0,0,1158.69,185.571Zm20.36-18.4a2,2,0,0,0-1.52-.622,3.473,3.473,0,0,0-1.62.415,5,5,0,0,0-1.41,1.1,6.555,6.555,0,0,0-1.03,1.511,3.767,3.767,0,0,0-.41,1.659,1.9,1.9,0,0,0,.65,1.482,2.239,2.239,0,0,0,1.58.593,3.546,3.546,0,0,0,1.56-.386,4.766,4.766,0,0,0,1.41-1.037,5.782,5.782,0,0,0,1-1.452,3.806,3.806,0,0,0,.38-1.629A2.243,2.243,0,0,0,1179.05,167.17Zm-4.82,19.171a1.685,1.685,0,0,0-1.05.356,10.645,10.645,0,0,0-1.47,1.54c-0.32.317-.7,0.692-1.15,1.126s-0.85.811-1.2,1.126a5.016,5.016,0,0,1-1.09.8,2.014,2.014,0,0,1-.85.208,0.86,0.86,0,0,1-.94-1.008q0-1.778,3.7-6.4a7.868,7.868,0,0,0,.88-1.333,2.654,2.654,0,0,0,.24-1.156,2.207,2.207,0,0,0-.59-1.57,1.933,1.933,0,0,0-1.47-.623,2.9,2.9,0,0,0-1.94.83,14.947,14.947,0,0,0-2.23,2.726q-3.825,5.81-3.83,9.541a4.453,4.453,0,0,0,1.15,3.171,3.815,3.815,0,0,0,2.91,1.215,7.493,7.493,0,0,0,3.61-1.1,15.717,15.717,0,0,0,3.85-3.111,8.432,8.432,0,0,0,1.09-1.333c0.33-.494.64-0.958,0.91-1.393a6.3,6.3,0,0,0,.62-1.215,2.768,2.768,0,0,0,.21-0.918,1.329,1.329,0,0,0-1.36-1.482h0Zm15.11-13.768h0a1.721,1.721,0,0,1-1.07,2.151h0q-1.485.494-3.92-1.148h0a15.978,15.978,0,0,1-1.7-1.3,2.527,2.527,0,0,1-.76-1.037h0a1.964,1.964,0,0,1,0-1.432,1.482,1.482,0,0,1,1.03-.87h0a1.721,1.721,0,0,1,1.12-.024,9.306,9.306,0,0,1,1.49.79h0a6.19,6.19,0,0,0,1.72,1.15h0c0.69,0.391,1.18.671,1.48,0.888A2.479,2.479,0,0,1,1189.34,172.573Zm1.53,16.257h0q0,1.777-3.35,4.8h0a17.111,17.111,0,0,1-4.59,3.141,11.149,11.149,0,0,1-4.58,1.067h0a5.291,5.291,0,0,1-3.94-1.541,5.73,5.73,0,0,1-1.47-4.208h0a12.615,12.615,0,0,1,1.29-5.511,22.318,22.318,0,0,1,3.77-5.452h0a17.385,17.385,0,0,1,4.05-3.438,7.547,7.547,0,0,1,3.7-1.126h0a3.31,3.31,0,0,1,2.53,1.067,3.982,3.982,0,0,1,.94,2.786h0a8.16,8.16,0,0,1-.41,2.607,9.76,9.76,0,0,1-1.17,2.371,7.32,7.32,0,0,1-1.53,1.718,2.827,2.827,0,0,1-1.77.711h0a1.641,1.641,0,0,1-1.17-.533,1.473,1.473,0,0,1-.53-1.126h0a1.185,1.185,0,0,1,.18-0.652,3.577,3.577,0,0,1,.7-0.77h0a3.506,3.506,0,0,0,1.41-2.252h0a0.534,0.534,0,0,0-.53-0.652h0a2.853,2.853,0,0,0-1.53.711,13.5,13.5,0,0,0-1.88,1.778h0a12.779,12.779,0,0,0-2.17,3.378,8.792,8.792,0,0,0-.82,3.259h0a1.81,1.81,0,0,0,.58,1.482,1.72,1.72,0,0,0,1.36.592h0a6.994,6.994,0,0,0,2.82-.829,9.765,9.765,0,0,0,2.76-2.074h0l1.76-1.778a2.8,2.8,0,0,1,2-1.126h0a1.618,1.618,0,0,1,1.12.474A1.642,1.642,0,0,1,1190.87,188.83Zm-3.74-13.885h0a1.577,1.577,0,0,1-1.13-.717,1.482,1.482,0,0,1-.27-1.252h0c0.16-.977,1.09-1.853,2.88-2.672h0a18.81,18.81,0,0,1,2.01-.855,2.972,2.972,0,0,1,1.28-.112h0a1.991,1.991,0,0,1,1.29.727,1.4,1.4,0,0,1,.33,1.256h0a1.661,1.661,0,0,1-.53.952,4.759,4.759,0,0,1-1.43.843h0a14.444,14.444,0,0,0-1.91.911h0a10.611,10.611,0,0,1-1.48.79A2.738,2.738,0,0,1,1187.13,174.945Zm10.67,13.826a9.73,9.73,0,0,1-1.64,1.718,2.192,2.192,0,0,1-1.3.474,0.841,0.841,0,0,1-.88-1.007,6.609,6.609,0,0,1,.62-2.311,15.3,15.3,0,0,1,1.56-2.845,10.715,10.715,0,0,1,2.08-2.281,3.276,3.276,0,0,1,1.85-.86,0.841,0.841,0,0,1,.95.949,4.015,4.015,0,0,1-.56,1.659,7.565,7.565,0,0,1-1.27,1.778l-0.94,1.007a0.93,0.93,0,0,0-.29.652,3.227,3.227,0,0,0,.18.652,2.189,2.189,0,0,0-.36.415h0Zm0.71,4.03v0.533a3.081,3.081,0,0,0,.88,2.222,2.889,2.889,0,0,0,2.17.919c2.32,0,4.74-1.343,7.29-4.03a18.306,18.306,0,0,0,2.59-3.319,5.642,5.642,0,0,0,.94-2.607,1.535,1.535,0,0,0-.38-1.067,1.345,1.345,0,0,0-1.03-.415,2.811,2.811,0,0,0-2,1.423,24.8,24.8,0,0,1-2.85,3.437,3.213,3.213,0,0,1-2.03,1.066,0.86,0.86,0,0,1-1-.948,4.212,4.212,0,0,1,.53-1.718,14.605,14.605,0,0,1,1.41-2.252,3.489,3.489,0,0,0,.59-0.83,1.563,1.563,0,0,0,.12-0.593,1.23,1.23,0,0,0-.18-0.651,3.485,3.485,0,0,0-.76-0.771c0.19-.513.34-0.957,0.44-1.333a5.465,5.465,0,0,0,.14-1.274,4.356,4.356,0,0,0-1.17-3.2,4.126,4.126,0,0,0-3.06-1.186,7.778,7.778,0,0,0-4.26,1.452,17.255,17.255,0,0,0-4.26,4.237,21.948,21.948,0,0,0-2.88,5.156,13.8,13.8,0,0,0-1.06,4.978,5.069,5.069,0,0,0,1.09,3.378,3.421,3.421,0,0,0,2.73,1.3q3.18,0,6-3.911h0Zm17.75-6.934c0.08-.157.14-0.3,0.2-0.415a1.135,1.135,0,0,1,.21-0.3l1.53-2.548,1.64-2.549q0.12-.3.24-0.681a2.673,2.673,0,0,0,.12-0.8,1.9,1.9,0,0,0-.53-1.334,1.733,1.733,0,0,0-1.3-.563,3.6,3.6,0,0,0-2.49,1.452,27.823,27.823,0,0,0-3.21,4.771c-0.78,1.343-1.51,2.736-2.17,4.178s-1.27,2.815-1.79,4.118a34.2,34.2,0,0,0-1.24,3.5,9.553,9.553,0,0,0-.44,2.37,2.326,2.326,0,0,0,.62,1.66,1.986,1.986,0,0,0,1.5.652,2.486,2.486,0,0,0,2.17-1.778l1-2.371a12.257,12.257,0,0,1,1.32-2.341,20.221,20.221,0,0,1,1.94-2.34,24.6,24.6,0,0,1,2.32-2.1,21.135,21.135,0,0,1,2.47-1.689,19.638,19.638,0,0,0-1.97,3.348,7.564,7.564,0,0,0-.56,2.934,4.026,4.026,0,0,0,1.09,2.9,3.723,3.723,0,0,0,2.79,1.126,7.2,7.2,0,0,0,3.53-1.066,14.769,14.769,0,0,0,3.64-3.023,22.605,22.605,0,0,0,2.65-3.674,6.269,6.269,0,0,0,1-2.785,1.427,1.427,0,0,0-.38-1.037,1.4,1.4,0,0,0-1.03-.385,2.492,2.492,0,0,0-.59.059,1.444,1.444,0,0,0-.56.355,7.4,7.4,0,0,0-.79.919q-0.48.623-1.29,1.748c-1.61,2.173-2.88,3.259-3.83,3.259a0.706,0.706,0,0,1-.76-0.829,3.554,3.554,0,0,1,.35-1.334,17.446,17.446,0,0,1,.94-1.777q0.6-.978,1.41-2.075a25.931,25.931,0,0,1,1.83-2.163,12.752,12.752,0,0,0,1.58-1.926,2.705,2.705,0,0,0,.41-1.451,1.853,1.853,0,0,0-.7-1.482,2.567,2.567,0,0,0-1.7-.593,4.141,4.141,0,0,0-1.65.356,13.662,13.662,0,0,0-2.18,1.3c-1.01.711-2.04,1.5-3.08,2.37s-2.13,1.877-3.26,3.023Zm33.18-11.526a6.129,6.129,0,0,0-4.09-1.274,12.848,12.848,0,0,0-6.7,2.074q-4.29,2.666-4.29,6.637a6.488,6.488,0,0,0,.5,2.578,13.005,13.005,0,0,0,1.91,2.874c0.47,0.632.85,1.136,1.15,1.511a9.413,9.413,0,0,1,.64.919,2.411,2.411,0,0,1,.27.592,2.186,2.186,0,0,1,.06.534,1.581,1.581,0,0,1-.62,1.274,2.38,2.38,0,0,1-1.56.5,2.661,2.661,0,0,1-1.73-.593,3.089,3.089,0,0,1-1.03-1.659,5.309,5.309,0,0,1-.18-0.5,1.311,1.311,0,0,1-.06-0.267l0.12-2.311a1.053,1.053,0,0,0-.47-0.919,1.7,1.7,0,0,0-1.12-.444,2.4,2.4,0,0,0-2.05,1.274,5.723,5.723,0,0,0-.83,3.171,7.183,7.183,0,0,0,.56,2.844,6.647,6.647,0,0,0,1.53,2.222,7.248,7.248,0,0,0,2.29,1.452,8.01,8.01,0,0,0,8-1.3,6.075,6.075,0,0,0,1.52-1.986,5.348,5.348,0,0,0,.56-2.4,5.922,5.922,0,0,0-.56-2.489,13.539,13.539,0,0,0-1.85-2.844,14.387,14.387,0,0,1-1.73-2.4,3.841,3.841,0,0,1-.44-1.749,2.713,2.713,0,0,1,.44-1.422,4.531,4.531,0,0,1,1.15-1.244,6.589,6.589,0,0,1,1.61-.889,5.086,5.086,0,0,1,1.85-.356,1.534,1.534,0,0,1,.97.3,0.918,0.918,0,0,1,.38.771,1.593,1.593,0,0,1-.38.978,2.731,2.731,0,0,1-.97.8l-1.11.592a1.982,1.982,0,0,0-1.12,1.778,1.9,1.9,0,0,0,.65,1.482,2.255,2.255,0,0,0,1.58.592,4.728,4.728,0,0,0,2.3-.652,8.8,8.8,0,0,0,2.14-1.689,9.148,9.148,0,0,0,1.59-2.311,5.75,5.75,0,0,0,.61-2.518A4.372,4.372,0,0,0,1249.44,174.341Zm14.93-1.956c0.21-.3.49-0.661,0.85-1.1,0.59-.711,1.06-1.3,1.44-1.778s0.65-.859.85-1.156a2.841,2.841,0,0,0,.38-0.741,2.227,2.227,0,0,0,.09-0.651,1.7,1.7,0,0,0-.59-1.3,2.181,2.181,0,0,0-1.53-.533,2.441,2.441,0,0,0-1.32.385,7.66,7.66,0,0,0-1.44,1.274q-1.59,1.778-3.11,3.763t-3.12,4.237l-0.29.474c-0.32.08-.64,0.148-0.97,0.208s-0.74.128-1.21,0.207a9.5,9.5,0,0,0-3.35,1.007,2,2,0,0,0-.88,1.778,1.906,1.906,0,0,0,.65,1.511,2.5,2.5,0,0,0,1.7.563h0.41a3.544,3.544,0,0,0,.59-0.059,45.354,45.354,0,0,0-3.53,7.023,15.685,15.685,0,0,0-1.05,5.363,4.879,4.879,0,0,0,1.29,3.5,4.4,4.4,0,0,0,3.35,1.363q3.765,0,7.99-4.563a26.684,26.684,0,0,0,2.77-3.585,5.644,5.644,0,0,0,1.05-2.7,1.471,1.471,0,0,0-.44-1.1,1.451,1.451,0,0,0-1.08-.444,1.614,1.614,0,0,0-.89.266,4.3,4.3,0,0,0-.94.978,24.021,24.021,0,0,1-3.73,4.208,5.278,5.278,0,0,1-2.85,1.6q-1.23,0-1.23-1.541a5.56,5.56,0,0,1,.29-1.659c0.2-.632.51-1.462,0.94-2.489,0.27-.712.55-1.343,0.82-1.9s0.56-1.1.86-1.629,0.61-1.087.97-1.66,0.76-1.215,1.23-1.926l0.47-.711c0.27-.079.5-0.148,0.68-0.207s0.44-.128.79-0.208q1.53-.414,3-0.711c0.98-.2,1.7-0.335,2.17-0.415a10.421,10.421,0,0,0,1.53-.266,2.283,2.283,0,0,0,.88-0.445,2.372,2.372,0,0,0,1.06-2.015,2.147,2.147,0,0,0-.62-1.57,2.028,2.028,0,0,0-1.5-.622,7.967,7.967,0,0,0-1.76.3l-1.82.474a4.354,4.354,0,0,0-.59.178C1263.9,173.007,1264.15,172.681,1264.37,172.385Zm13.37,15.7a5.24,5.24,0,0,0,1,.089,5.51,5.51,0,0,0,2.17-.474,8.6,8.6,0,0,0,2.06-1.244,7.56,7.56,0,0,0,1.53-1.689,3.347,3.347,0,0,0,.58-1.808,1.4,1.4,0,0,0-.44-1.037,1.342,1.342,0,0,0-.97-0.444,2.113,2.113,0,0,0-.38.029,0.932,0.932,0,0,0-.35.178c-0.14.1-.33,0.237-0.56,0.415s-0.55.425-.94,0.741a3.649,3.649,0,0,1-2.23.948,2.952,2.952,0,0,1-.59-0.059,9.992,9.992,0,0,0,1-2.578,11.947,11.947,0,0,0,.35-2.756,3.736,3.736,0,0,0-.47-1.956,1.451,1.451,0,0,0-1.29-.77,2.377,2.377,0,0,0-1.5.593,6.433,6.433,0,0,0-1.33,1.511,8.4,8.4,0,0,0-.94,2.133,8.971,8.971,0,0,0-.35,2.46v0.711a5.978,5.978,0,0,0,.12,1.007,9.493,9.493,0,0,1-.82,1.511c-0.36.534-.81,1.156-1.36,1.867a20.707,20.707,0,0,1-1.91,2.252,2.049,2.049,0,0,1-1.32.711,0.626,0.626,0,0,1-.5-0.267,0.967,0.967,0,0,1-.2-0.622,6.254,6.254,0,0,1,.47-1.955,18.731,18.731,0,0,1,1.17-2.608l1.53-3.022a12.949,12.949,0,0,0,1.03-2.489,8.117,8.117,0,0,0,.38-2.134,2.1,2.1,0,0,0-.59-1.54,1.91,1.91,0,0,0-1.41-.593,2.051,2.051,0,0,0-1.38.474,4.322,4.322,0,0,0-1.03,1.719c-0.23.553-.47,1.116-0.7,1.689a14.658,14.658,0,0,1-.83,1.689l-1.99,4.148a24.962,24.962,0,0,0-1.44,3.763,11.223,11.223,0,0,0-.5,3.111,4.735,4.735,0,0,0,1.08,3.171,3.458,3.458,0,0,0,2.74,1.274,7.918,7.918,0,0,0,4.99-2.252,24.334,24.334,0,0,0,5-6.223A6.91,6.91,0,0,0,1277.74,188.089Zm11.34,0.682a10.079,10.079,0,0,1-1.65,1.718,2.165,2.165,0,0,1-1.29.474,0.837,0.837,0,0,1-.88-1.007,6.393,6.393,0,0,1,.62-2.311,15.855,15.855,0,0,1,1.55-2.845,10.742,10.742,0,0,1,2.09-2.281,3.222,3.222,0,0,1,1.85-.86,0.834,0.834,0,0,1,.94.949,3.87,3.87,0,0,1-.56,1.659,7.266,7.266,0,0,1-1.26,1.778l-0.94,1.007a0.89,0.89,0,0,0-.29.652,2.91,2.91,0,0,0,.17.652,2.423,2.423,0,0,0-.35.415h0Zm0.7,4.03v0.533a3.089,3.089,0,0,0,.89,2.222,2.874,2.874,0,0,0,2.17.919q3.465,0,7.29-4.03a18.306,18.306,0,0,0,2.59-3.319,5.642,5.642,0,0,0,.94-2.607,1.5,1.5,0,0,0-.39-1.067,1.308,1.308,0,0,0-1.02-.415,2.793,2.793,0,0,0-2,1.423,24.8,24.8,0,0,1-2.85,3.437,3.236,3.236,0,0,1-2.03,1.066,0.86,0.86,0,0,1-1-.948,4.212,4.212,0,0,1,.53-1.718,14.605,14.605,0,0,1,1.41-2.252,3.489,3.489,0,0,0,.59-0.83,1.765,1.765,0,0,0,.11-0.593,1.222,1.222,0,0,0-.17-0.651,3.59,3.59,0,0,0-.77-0.771,10.607,10.607,0,0,0,.44-1.333,4.955,4.955,0,0,0,.15-1.274,4.356,4.356,0,0,0-1.17-3.2,4.142,4.142,0,0,0-3.06-1.186,7.778,7.778,0,0,0-4.26,1.452,17.255,17.255,0,0,0-4.26,4.237,21.256,21.256,0,0,0-2.88,5.156,13.8,13.8,0,0,0-1.06,4.978,5.069,5.069,0,0,0,1.09,3.378,3.393,3.393,0,0,0,2.73,1.3c2.12,0,4.11-1.3,5.99-3.911h0Zm29.6-3.7a29.549,29.549,0,0,1,1.79-2.874q2.355-3.557,4.11-3.556a0.87,0.87,0,0,1,.74.355,1.327,1.327,0,0,1,.26.83,4.413,4.413,0,0,1-.26,1.393,12.8,12.8,0,0,1-.71,1.689,18.582,18.582,0,0,1-1.02,1.807,13.021,13.021,0,0,1-1.3,1.689,8.706,8.706,0,0,1-2.26,2.045,4.414,4.414,0,0,1-2.2.622,3.934,3.934,0,0,1-.53-0.03,1.843,1.843,0,0,1-.59-0.207C1318.19,191.319,1318.85,190.065,1319.38,189.1Zm5.85-11.112a3.669,3.669,0,0,0,.29-1.363,1.908,1.908,0,0,0-.56-1.392,1.861,1.861,0,0,0-1.38-.563,2.093,2.093,0,0,0-.73.118,1.87,1.87,0,0,0-.68.474,8.852,8.852,0,0,0-.82.978,15.344,15.344,0,0,0-1.06,1.63L1318.94,180c-0.32.554-.63,1.107-0.94,1.659s-0.75,1.285-1.3,2.193q-0.645,1.245-1.35,2.578t-1.53,2.815q-1.35,2.608-2.49,5.007t-2.56,5.482q-2.235,5.037-3.29,7.911a13.907,13.907,0,0,0-1.06,4.06,2.625,2.625,0,0,0,.68,1.778,2.023,2.023,0,0,0,1.55.77,1.5,1.5,0,0,0,1.21-.533,8.557,8.557,0,0,0,1.03-1.9,3.162,3.162,0,0,1,.29-0.77c0.2-.435.45-1.047,0.76-1.837l2.47-5.808c0.16-.316.3-0.613,0.41-0.889s0.28-.651.47-1.126c0.24-.474.47-0.958,0.71-1.452s0.45-1,.65-1.511l0.7-1.54a5.7,5.7,0,0,0,3.59,1.185,7.027,7.027,0,0,0,3.49-.978,15.1,15.1,0,0,0,3.62-3.052,21.536,21.536,0,0,0,2.2-2.874,25.428,25.428,0,0,0,1.68-3.022,18.126,18.126,0,0,0,1.09-2.964,10.836,10.836,0,0,0,.38-2.7,4.951,4.951,0,0,0-.94-3.141,3.128,3.128,0,0,0-2.59-1.185,4.377,4.377,0,0,0-1.76.356,8.382,8.382,0,0,0-2,1.363A11.252,11.252,0,0,0,1325.23,177.985Zm16.86,10.667a2.14,2.14,0,0,0,.86,1.748,3.3,3.3,0,0,0,2.14.682,9.508,9.508,0,0,0,5.35-2.015,9.07,9.07,0,0,0,2.26-2.1,3.562,3.562,0,0,0,.8-2.044,1.539,1.539,0,0,0-.42-1.1,1.356,1.356,0,0,0-1.05-.444,1.4,1.4,0,0,0-.71.207,12.2,12.2,0,0,0-1.17.86,14.782,14.782,0,0,1-1.8,1.3,2.709,2.709,0,0,1-1.2.475,0.479,0.479,0,0,1-.59-0.475,1.839,1.839,0,0,1,.62-1.007,14.491,14.491,0,0,1,1.61-1.422,5.8,5.8,0,0,0,1.47-1.274,2.076,2.076,0,0,0,.42-1.274,1.874,1.874,0,0,0-.56-1.3,1.725,1.725,0,0,0-1.27-.593,3.032,3.032,0,0,0-1.47.474q-0.825.475-2.46,1.66-1.77,1.363-3.18,2.607a32.558,32.558,0,0,0-3,3.082l-0.41.474a15.175,15.175,0,0,1,1.06-1.956,16.493,16.493,0,0,1,1.53-2.074,13.173,13.173,0,0,0,1.26-1.659,2.118,2.118,0,0,0,.27-1.067,1.644,1.644,0,0,0-.59-1.245,2.021,2.021,0,0,0-1.41-.533,3.36,3.36,0,0,0-2.41,1.245,15.129,15.129,0,0,0-1.62,2.044c-0.61.889-1.18,1.808-1.73,2.756-0.63,1.066-1.23,2.2-1.79,3.407s-1.07,2.371-1.5,3.5-0.78,2.153-1.03,3.081a8.558,8.558,0,0,0-.38,2.163,1.994,1.994,0,0,0,.58,1.511,2.148,2.148,0,0,0,1.53.563,2.223,2.223,0,0,0,1.35-.385,3.5,3.5,0,0,0,1-1.333l1.3-2.726a18.792,18.792,0,0,1,2.99-4.356,23.929,23.929,0,0,1,4.18-3.7,4,4,0,0,0-.83,2.252h0Zm25.39-21.482a2,2,0,0,0-1.52-.622,3.473,3.473,0,0,0-1.62.415,5,5,0,0,0-1.41,1.1,6.555,6.555,0,0,0-1.03,1.511,3.767,3.767,0,0,0-.41,1.659,1.9,1.9,0,0,0,.65,1.482,2.256,2.256,0,0,0,1.58.593,3.546,3.546,0,0,0,1.56-.386,4.766,4.766,0,0,0,1.41-1.037,5.782,5.782,0,0,0,1-1.452,3.806,3.806,0,0,0,.38-1.629A2.243,2.243,0,0,0,1367.48,167.17Zm-4.82,19.171a1.685,1.685,0,0,0-1.05.356,10.645,10.645,0,0,0-1.47,1.54c-0.32.317-.7,0.692-1.15,1.126s-0.85.811-1.2,1.126a5.016,5.016,0,0,1-1.09.8,2.014,2.014,0,0,1-.85.208,0.86,0.86,0,0,1-.94-1.008q0-1.778,3.7-6.4a7.868,7.868,0,0,0,.88-1.333,2.654,2.654,0,0,0,.24-1.156,2.207,2.207,0,0,0-.59-1.57,1.933,1.933,0,0,0-1.47-.623,2.919,2.919,0,0,0-1.94.83,14.947,14.947,0,0,0-2.23,2.726q-3.825,5.81-3.83,9.541a4.453,4.453,0,0,0,1.15,3.171,3.83,3.83,0,0,0,2.91,1.215,7.559,7.559,0,0,0,3.62-1.1,15.868,15.868,0,0,0,3.84-3.111,8.432,8.432,0,0,0,1.09-1.333c0.33-.494.64-0.958,0.91-1.393a6.3,6.3,0,0,0,.62-1.215,2.768,2.768,0,0,0,.21-0.918,1.329,1.329,0,0,0-1.36-1.482h0Zm8.94,2.311a2.131,2.131,0,0,0,.85,1.748,3.325,3.325,0,0,0,2.15.682,9.506,9.506,0,0,0,5.34-2.015,9.129,9.129,0,0,0,2.27-2.1,3.542,3.542,0,0,0,.79-2.044,1.575,1.575,0,0,0-.41-1.1,1.392,1.392,0,0,0-1.06-.444,1.365,1.365,0,0,0-.7.207,11.964,11.964,0,0,0-1.18.86,14.762,14.762,0,0,1-1.79,1.3,2.694,2.694,0,0,1-1.21.475,0.479,0.479,0,0,1-.59-0.475,1.839,1.839,0,0,1,.62-1.007,13.821,13.821,0,0,1,1.62-1.422,6.178,6.178,0,0,0,1.47-1.274,2.132,2.132,0,0,0,.41-1.274,1.874,1.874,0,0,0-.56-1.3,1.689,1.689,0,0,0-1.26-.593,3.032,3.032,0,0,0-1.47.474c-0.55.317-1.37,0.87-2.47,1.66-1.18.909-2.23,1.777-3.17,2.607a32.558,32.558,0,0,0-3,3.082l-0.41.474a13.835,13.835,0,0,1,1.05-1.956,16.493,16.493,0,0,1,1.53-2.074,13.59,13.59,0,0,0,1.27-1.659,2.22,2.22,0,0,0,.26-1.067,1.644,1.644,0,0,0-.59-1.245,2.021,2.021,0,0,0-1.41-.533,3.377,3.377,0,0,0-2.41,1.245,14.42,14.42,0,0,0-1.61,2.044q-0.915,1.334-1.74,2.756c-0.62,1.066-1.22,2.2-1.79,3.407s-1.07,2.371-1.5,3.5-0.77,2.153-1.03,3.081a9.04,9.04,0,0,0-.38,2.163,2,2,0,0,0,.59,1.511,2.115,2.115,0,0,0,1.53.563,2.223,2.223,0,0,0,1.35-.385,3.714,3.714,0,0,0,1-1.333l1.29-2.726a18.85,18.85,0,0,1,3-4.356,23.518,23.518,0,0,1,4.17-3.7,3.978,3.978,0,0,0-.82,2.252h0Zm13.4,3.674a0.845,0.845,0,0,1-.74-0.385,1.626,1.626,0,0,1-.26-0.918,8.2,8.2,0,0,1,.91-3.23,23.751,23.751,0,0,1,2.32-3.941,14.616,14.616,0,0,1,1.94-2.281,2.482,2.482,0,0,1,1.47-.8,0.583,0.583,0,0,1,.59.711,5.645,5.645,0,0,1-.71,2.37,8.432,8.432,0,0,1-1.7,2.371,2.473,2.473,0,0,0-.53.563,1.116,1.116,0,0,0,0,1.007,4.329,4.329,0,0,0,.47.622c-1.37,2.608-2.63,3.911-3.76,3.911h0Zm10.34-8.77a9.777,9.777,0,0,0,.47-3.141,5.689,5.689,0,0,0-1-3.556,3.271,3.271,0,0,0-2.76-1.3,7.8,7.8,0,0,0-4.26,1.57,18.149,18.149,0,0,0-4.32,4.237,23.437,23.437,0,0,0-3.14,5.63,15.24,15.24,0,0,0-1.15,5.511,5.829,5.829,0,0,0,1.23,3.852,3.955,3.955,0,0,0,3.18,1.482,7.359,7.359,0,0,0,3.99-1.274,14.454,14.454,0,0,0,3.77-3.645,15.977,15.977,0,0,0,1.85-3.2,7.339,7.339,0,0,0,.67-2.785,2.186,2.186,0,0,0-.06-0.534A9.916,9.916,0,0,0,1395.34,183.556Zm14.34-2.193-1.94,3.911c-0.74,1.5-1.37,2.737-1.88,3.7s-0.92,1.729-1.23,2.282c-0.94,1.5-1.8,2.252-2.59,2.252-0.63,0-.94-0.454-0.94-1.363a10.016,10.016,0,0,1,.97-3.852,22,22,0,0,1,2.5-4.326,10.16,10.16,0,0,1,2.09-2.252,3.283,3.283,0,0,1,1.96-.652,2.132,2.132,0,0,1,1.06.3h0Zm-0.64-5.1a8.364,8.364,0,0,0-3.94,1.1,12.312,12.312,0,0,0-3.65,2.993,23.053,23.053,0,0,0-4.08,6.37,16.807,16.807,0,0,0-1.44,6.549,6.022,6.022,0,0,0,1.2,3.911,3.948,3.948,0,0,0,3.21,1.481,5.621,5.621,0,0,0,3.35-1.214,10.51,10.51,0,0,0,2.82-3.289,4.648,4.648,0,0,0,1,2.844,3.038,3.038,0,0,0,2.41,1.008q2.88,0,6.58-4.682,0.765-1.006,1.44-2.015c0.45-.671.83-1.3,1.15-1.9s0.56-1.136.76-1.63a3.292,3.292,0,0,0,.29-1.156,1.427,1.427,0,0,0-.41-1.066,1.339,1.339,0,0,0-1-.415,1.7,1.7,0,0,0-1.11.444,8.266,8.266,0,0,0-1.35,1.63c-0.4.554-.86,1.185-1.39,1.9a14.706,14.706,0,0,1-1.26,1.541,4.821,4.821,0,0,1-.91.741,1.564,1.564,0,0,1-.79.267c-0.55,0-.83-0.375-0.83-1.126a10.13,10.13,0,0,1,.77-3.023c0.51-1.3,1.14-2.794,1.91-4.474s1.61-3.407,2.55-5.185q0.825-1.54,1.47-2.756c0.43-.809.85-1.56,1.24-2.252s0.77-1.343,1.14-1.956,0.78-1.253,1.21-1.926a8.314,8.314,0,0,0,.79-1.422,2.889,2.889,0,0,0,.21-1.066,1.96,1.96,0,0,0-.59-1.423,1.913,1.913,0,0,0-1.41-.592,2.962,2.962,0,0,0-2.15,1.126,21.629,21.629,0,0,0-2.55,3.97c-0.43.83-.81,1.541-1.12,2.133s-0.61,1.156-.88,1.689-0.55,1.088-.82,1.66-0.61,1.235-1,1.985a5.43,5.43,0,0,0-2.82-.77h0Zm17.48,6.637a3.335,3.335,0,0,1,1.85-1.185,0.583,0.583,0,0,1,.59.711,2.342,2.342,0,0,1-.35,1.185,4.914,4.914,0,0,1-.91,1.1,4.694,4.694,0,0,1-1.24.8,3.247,3.247,0,0,1-1.32.3,1.943,1.943,0,0,1-.38-0.03c-0.1-.019-0.23-0.049-0.38-0.089A13.277,13.277,0,0,1,1426.52,182.9Zm-3.05,7.2a2.955,2.955,0,0,0,.79.089,7.622,7.622,0,0,0,3.35-.8,10.183,10.183,0,0,0,2.91-2.1,11.177,11.177,0,0,0,2.06-2.963,7.871,7.871,0,0,0,.79-3.378,4.052,4.052,0,0,0-1.06-2.9,3.615,3.615,0,0,0-2.76-1.126,7.709,7.709,0,0,0-4.2,1.393,16.616,16.616,0,0,0-3.91,3.585,19.833,19.833,0,0,0-2.88,4.86,13.356,13.356,0,0,0-1.12,5.215,6.033,6.033,0,0,0,1.62,4.356,5.544,5.544,0,0,0,4.2,1.689,10.71,10.71,0,0,0,4.88-1.334,18,18,0,0,0,4.82-3.7,16.89,16.89,0,0,0,2.38-3.052,5.153,5.153,0,0,0,.85-2.518,1.775,1.775,0,0,0-.44-1.245,1.431,1.431,0,0,0-1.09-.474,1.938,1.938,0,0,0-1.47.889l-1.23,1.659a14.888,14.888,0,0,1-3.73,3.556,7.1,7.1,0,0,1-3.74,1.422,2.563,2.563,0,0,1-1.67-.5,1.842,1.842,0,0,1-.62-1.512,1.947,1.947,0,0,1,.09-0.622,4.725,4.725,0,0,1,.32-0.681C1422.97,189.976,1423.25,190.045,1423.47,190.1Zm19.04,1.037a1.973,1.973,0,0,0-1.62-.77,2.864,2.864,0,0,0-1.47.415,4.7,4.7,0,0,0-1.26,1.1,5.816,5.816,0,0,0-.91,1.57,4.7,4.7,0,0,0-.35,1.778,2.638,2.638,0,0,0,.67,1.9,2.292,2.292,0,0,0,1.74.711,3.562,3.562,0,0,0,3.29-2.43,5.612,5.612,0,0,0,.47-1.215,4.958,4.958,0,0,0,.17-1.1A3.649,3.649,0,0,0,1442.51,191.141Zm16.31-34.134a2.175,2.175,0,0,0-1.62.622,11.38,11.38,0,0,0-1.61,2.578c-0.2.435-.48,1.007-0.86,1.718s-0.83,1.541-1.38,2.489l-3.11,5.63q-0.885,1.6-1.62,2.9t-1.32,2.252l-2.88,4.919a11.09,11.09,0,0,0-1.76,4.622,2.563,2.563,0,0,0,.79,1.867,2.536,2.536,0,0,0,1.85.8,1.942,1.942,0,0,0,1.47-.711c0.12-.2.25-0.435,0.41-0.712s0.51-.908,1.06-1.9c0.23-.434.53-0.978,0.88-1.63s0.78-1.412,1.29-2.281l2.88-4.86c0.83-1.342,1.54-2.548,2.15-3.615s1.15-2.053,1.62-2.963,0.91-1.777,1.32-2.607,0.81-1.679,1.2-2.548c0.55-1.224.92-2.134,1.12-2.726a4.764,4.764,0,0,0,.29-1.482c0-1.579-.72-2.37-2.17-2.37h0Z" transform="translate(-905 -157)"/>
</svg>
