<?xml version="1.0" encoding="utf-8"?>
<!-- Generator: Adobe Illustrator 23.0.3, SVG Export Plug-In . SVG Version: 6.00 Build 0)  -->
<svg version="1.1" id="Слой_1" xmlns="http://www.w3.org/2000/svg" xmlns:xlink="http://www.w3.org/1999/xlink" x="0px" y="0px"
	 viewBox="0 0 766.7 293.1" style="enable-background:new 0 0 766.7 293.1;" xml:space="preserve">
<style type="text/css">
	.st0{fill:#00B600;}
	.st1{fill:#FFFFFF;}
	.st2{fill:#0E9B0E;}
</style>
<path class="st0" d="M468.23,17.65c0.01,0,0.02,0.01,0.02,0.01c-0.88,1.2-1.69,2.48-2.43,3.82c-0.1,0.04-0.19,0.08-0.27,0.11
	c0.61-0.23,1.59-0.67,2.26-1.33C468.76,19.32,468.56,17.65,468.23,17.65c-0.33,0-0.43,0.54-0.91,0.5
	C467.81,18.19,467.91,17.65,468.23,17.65z"/>
<g>
	<path class="st1" d="M374,125.88c21.82-17.96,24.99-33.51,31.47-33.87c9.1-0.51,22.18,19.39,38.3,27.66
		c32.69,16.75,72.33,10.44,72.33,10.44s-13.43-0.85-29.79-4.15c5.6-13.49,32.91-78.93,35.74-78.79
		c3.16,0.16,10.09,37.71,21.12,47.33c13.74,11.98,29.71-5.3,38.83-3.8c13.02,2.14,48.63,62.3,48.63,62.3s-28.25-64.5-47.37-69.45
		c-14.48-3.75-21.67,10.87-31.6,3.98c-7.38-5.13-18.06-57.44-28.26-56.81c-10.75,0.66-42.13,76.62-48.61,92.6
		c-10.05-2.63-20.29-6.23-28.6-11.1c-16.02-9.4-29.12-34.58-39.84-36.95c-11.1-2.45-15.43,27.54-38.19,46.19
		c-17.87,14.64-49.63,24.63-49.63,24.63S352.19,143.85,374,125.88z"/>
	<path class="st1" d="M266.66,137.19c1.15-18.12,67.71-15.13,81.52-16.58c0.28-1.92-100.3-9.97-103.6,14.56
		c-3.51,26.1,76.23,63.9,71.62,82.69c-0.76,3.1-6.6,9.8-39.79,10.49c-33.19,0.69-103.84-15.91-180.12,4.53
		C47.89,245.85,0,283.41,0,283.41l115.9-8.5c10.09-12.25,29.39-20.9,56.17-24.8c34.44-5.02,62.72-1.41,84.54-0.55
		c22.76,0.89,83.12-0.47,86.76-27.86C347.75,188.85,265.5,155.56,266.66,137.19z"/>
	<path class="st1" d="M399.72,167.14c0.22-1.19,0.33-2.14,0.33-2.83c0-0.69-0.01-1.47-0.01-2.34c-0.03-5.72-1.12-10.44-3.28-14.26
		c-2.15-3.82-4.9-5.99-8.23-6.41c-3.79-0.49-7.86,0.95-12.19,4.47c-4.34,3.53-8.49,8.84-12.47,16.06
		c-2.28,4.16-4.38,8.72-6.32,13.68c-1.94,4.97-3.59,10.07-4.97,15.26c-1.37,5.19-2.44,10.39-3.19,15.55
		c-0.75,5.16-1.14,9.91-1.15,14.19c-0.02,6.42,0.9,11.53,2.77,15.24c1.87,3.71,4.36,5.38,7.46,5.07c2.07-0.2,3.97-1.2,5.7-2.95
		c1.73-1.75,4.05-5.2,6.94-10.22c-6.25,18.82-9.59,65.98-7.52,65.45c2.65-0.67,4.75-2.99,6.3-6.9c0.24-0.62,0.45-1.22,0.63-1.83
		c0.18-0.6,11.06-45.78,12.52-50.68c1.46-4.9,2.98-9.94,4.55-15.1c1.57-5.16,3.1-10.04,4.6-14.66c1.5-4.61,2.78-8.3,3.79-11.09
		c1.39-3.81,2.58-7.24,3.6-10.24c1.03-3,1.88-5.59,2.56-7.8c0.45-1.35,0.68-2.46,0.68-3.32
		C402.83,169.94,401.79,168.5,399.72,167.14z M384.26,179.27c-1.25,3.73-9.89,28.19-12.14,31.4c-2.25,3.22-4.18,4.89-5.78,4.96
		c-0.92,0.04-1.66-0.49-2.24-1.6c-0.57-1.11-0.85-2.51-0.85-4.21c0.01-3.58,0.85-8.37,2.51-14.27c1.66-5.9,3.81-11.5,6.44-16.76
		c4.91-10.15,8.85-15.23,11.31-15.22c1.6,0.01,2.59,1.9,2.61,5.29C386.13,172.1,385.51,175.55,384.26,179.27z"/>
	<path class="st1" d="M612.16,174.47c-1.97-1.96-4.68-3.22-8.12-3.69c-3.79-0.52-7.95-0.01-12.47,1.75
		c-4.52,1.76-8.72,4.51-12.6,8.37c-2.92,2.89-5.37,6.08-7.35,9.51c-0.88,1.04-1.86,2.17-2.94,3.43c-1.55,1.81-2.79,3.15-3.71,3.98
		c-0.92,0.83-1.81,1.49-2.67,1.98c-0.86,0.49-1.64,0.75-2.33,0.77c-1.61,0.05-2.41-0.91-2.41-2.9c0-1.67,0.73-4.41,2.24-7.97
		c1.44-3.38,3.35-7.23,5.57-11.41c2.22-4.17,4.7-8.34,7.42-12.45c1.59-2.37,3-4.44,4.25-6.24c1.24-1.8,2.43-3.42,3.57-4.9
		c1.13-1.47,2.23-2.82,3.31-4.07c1.07-1.25,2.23-2.54,3.48-3.83c1.11-1.14,1.89-2.07,2.28-2.8c0.39-0.73,0.58-1.5,0.57-2.32
		c-0.02-1.27-0.61-2.5-1.78-3.69c-1.16-1.2-2.55-2.01-4.16-2.42c-2.19-0.55-4.27-0.2-6.26,1.14c-1.99,1.34-4.44,3.98-7.37,8.13
		c-1.24,1.83-2.31,3.42-3.21,4.76c-0.9,1.34-1.75,2.64-2.54,3.88c-0.79,1.24-1.58,2.55-2.37,3.92c-0.79,1.37-1.75,2.96-2.89,4.79
		c-2.54-1.65-5.3-2.7-8.29-3.09c-3.68-0.48-7.52,0.02-11.52,1.61c-4.01,1.6-7.54,4.1-10.63,7.55c-5.14,5.37-9.1,11.6-11.91,18.51
		c-0.87,2.14-1.59,4.27-2.19,6.39c-2.24,3.09-4.18,5.52-5.83,7.22c-2.24,2.3-4.22,3.51-5.95,3.56c-1.95,0.05-2.93-0.96-2.92-3.04
		c0-1.43,0.52-3.32,1.55-5.65c1.03-2.32,2.41-4.75,4.13-7.26c0.92-1.12,1.49-1.99,1.72-2.62c0.23-0.62,0.34-1.25,0.34-1.89
		c0-0.76-0.18-1.46-0.52-2.12c-0.34-0.65-1.1-1.51-2.25-2.6c0.57-1.63,0.99-3.03,1.27-4.22c0.28-1.19,0.42-2.54,0.41-4.07
		c-0.02-4.32-1.2-7.85-3.51-10.69c-2.32-2.84-5.32-4.54-8.99-5.02c-4.02-0.52-8.17,0.56-12.45,3.43c-4.28,2.87-8.4,7.48-12.4,13.86
		c-3.33,5.31-6.04,11.18-8.07,17.49c-1.51,2.44-2.49,4.06-4.2,6.91c-4.71,7.47-8.17,11.46-10.35,11.53
		c-0.69,0.02-1.26-0.34-1.72-1.1c-0.46-0.76-0.69-1.76-0.68-3c0-2.16,0.61-5,1.81-8.46c1.21-3.46,3.18-8.08,5.92-13.73
		c1.37-2.82,2.48-5.09,3.34-6.84s1.51-3.23,1.96-4.47c0.45-1.23,0.76-2.29,0.93-3.17c0.17-0.88,0.25-1.76,0.24-2.66
		c-0.01-2.23-0.57-4.1-1.67-5.63c-1.1-1.53-2.51-2.4-4.24-2.59c-2.76-0.3-5.21,1.78-7.36,6.36c-2.31,4.69-3.47,7.08-5.8,11.92
		c-1.94,4.12-3.99,8.3-6.17,12.54c-2.17,4.25-4.27,7.94-6.19,11.02c-2.31,3.7-4.25,5.66-5.86,5.7c-1.38,0.03-2.06-1.28-2.06-3.92
		c0-4.12,1.04-9.18,3.09-15.01c2.06-5.84,4.96-12.3,8.72-19.21c1.82-3.22,2.98-5.56,3.49-7.1c0.51-1.53,0.75-3.17,0.74-4.91
		c-0.02-2.21-0.58-4.1-1.68-5.67s-2.46-2.47-4.07-2.68c-3.91-0.51-8.79,5.06-14.69,17.58c-3.63,7.7-6.53,15.91-8.7,24.46
		c-2.17,8.56-3.27,16.39-3.28,23.26c-0.01,6.02,1.06,10.83,3.22,14.34c2.17,3.51,4.91,5.08,8.24,4.81c2.98-0.25,5.81-1.78,8.46-4.51
		c2.65-2.73,5.31-6.92,7.97-12.49c-0.23,0.97-0.38,1.74-0.44,2.31c-0.06,0.57-0.09,1.25-0.09,2.05c-0.01,4.17,0.89,7.61,2.71,10.25
		c1.82,2.64,4.17,3.79,7.04,3.53c3.33-0.31,6.9-2.28,10.71-5.78c2.61-2.39,5.27-5.47,7.99-9.16c0.52,2.07,1.31,3.87,2.37,5.4
		c2.11,3.06,4.77,4.41,7.99,4.13c6.2-0.53,12.09-5.73,17.63-14.91c0,0.73,0,1.1-0.01,1.83c-0.01,2.98,0.84,5.47,2.55,7.43
		c1.71,1.96,3.83,2.81,6.36,2.59c5.64-0.47,11.53-4.08,17.67-10.26c0.54,2.67,1.54,4.91,3.01,6.69c2.34,2.82,5.46,3.97,9.36,3.56
		c3.33-0.35,6.61-1.91,9.84-4.53c3.23-2.63,6-5.95,8.31-9.94c0.22,3.4,1.18,5.97,2.89,7.67c1.71,1.7,4.06,2.37,7.05,2.08
		c3.86-0.38,8.11-2.79,12.75-6.88c0.51,2.31,1.57,4.25,3.21,5.75c2.4,2.2,5.49,3.06,9.28,2.69c3.9-0.38,7.82-1.75,11.73-3.95
		c3.91-2.2,7.6-5.09,11.06-8.55c2.3-2.34,4.21-4.52,5.44-6.76c6.36-11.57,7.63-16.03,7.62-18.27
		C615.12,178.85,614.13,176.44,612.16,174.47z M492.78,181.66c-1.08,2.34-11.38,20.08-12.64,21.21c-1.27,1.13-2.53,1.72-3.79,1.76
		c-1.72,0.04-2.58-1.13-2.58-3.53c0-1.97,0.61-4.73,1.81-8.23c1.2-3.49,2.71-6.82,4.55-9.91c1.92-3.24,3.97-5.76,6.09-7.6
		c2.12-1.83,3.92-2.67,5.41-2.56c1.84,0.13,2.76,1.26,2.77,3.38C494.4,177.5,493.86,179.31,492.78,181.66z M547.74,183.37
		c-2.17,4.05-4.01,7.48-5.5,10.21c-1.49,2.72-2.7,4.91-3.62,6.51c-2.76,4.35-5.3,6.68-7.6,6.8c-1.84,0.1-2.75-1.2-2.74-3.88
		c0.01-3.15,0.96-6.98,2.85-11.37c1.89-4.38,4.33-8.5,7.3-12.29c2.29-2.92,4.31-4.89,6.09-5.97c1.77-1.08,3.69-1.52,5.76-1.36
		c1.03,0.08,2.07,0.43,3.1,1.04C551.14,177.08,550.01,179.14,547.74,183.37z M594.52,197.38c-4.02,5.65-7.71,8.79-11.03,8.93
		c-0.92,0.04-1.64-0.23-2.15-0.8c-0.51-0.57-0.77-1.28-0.77-2.1c0-1.92,0.89-4.45,2.67-7.46c1.78-3.02,4.05-5.93,6.79-8.69
		c2.06-2.08,3.95-3.62,5.67-4.64c1.72-1.02,3.15-1.47,4.3-1.37c1.15,0.09,1.73,0.64,1.73,1.63
		C601.72,184.19,598.46,192.76,594.52,197.38z"/>
	<path class="st1" d="M671.77,199.67c-0.2-1.57,4.19-5.42,12.54-9.82c1.82-0.95,3.08-1.65,3.77-2.17c0.69-0.52,1.04-1.04,1.04-1.58
		c0-0.72-0.73-1.42-2.18-2.15c-1.45-0.73-3.09-1.21-4.91-1.42c-1.29-0.15-2.63-0.13-4.02,0.06c-1.39,0.2-3.16,0.61-5.3,1.3
		c-0.96,0.33-1.93,0.65-2.89,0.97c-0.96,0.32-1.98,0.71-3.05,1.19c-1.07,0.47-2.3,1.03-3.69,1.68c-1.39,0.66-3.05,1.49-4.98,2.54
		c-0.77,0.43-1.16,0.65-1.93,1.09c0.51-0.52,0.77-0.78,1.28-1.29c1.35-1.3,2.02-1.93,3.37-3.15c1.39-1.24,2.29-2.12,2.72-2.7
		c0.43-0.58,0.64-1.12,0.63-1.63c0-0.78-0.55-1.5-1.62-2.16c-1.08-0.66-2.37-1.09-3.87-1.27c-1.18-0.14-2.49-0.09-3.94,0.16
		c-1.44,0.25-3.08,0.74-4.89,1.49c-1.82,0.75-3.93,1.82-6.33,3.27c-2.41,1.45-5.21,3.31-8.42,5.69c0.71-0.89,1.06-1.32,1.76-2.19
		c0.96-1.04,1.76-1.89,2.4-2.55c0.64-0.66,1.12-1.14,1.44-1.45c1.81-1.66,2.96-2.77,3.44-3.44c0.48-0.67,0.72-1.32,0.71-1.96
		c-0.01-0.84-0.52-1.61-1.54-2.33c-1.02-0.72-2.23-1.18-3.63-1.37c-1.29-0.17-2.47-0.08-3.53,0.29c-1.07,0.37-2.35,1.09-3.84,2.18
		c-2.56,1.95-5.14,4.47-7.76,7.62c-2.61,3.15-5.05,6.76-7.3,10.85c-3.97,7.16-5.98,12.63-5.99,15.65c-0.01,1.51,0.52,2.69,1.59,3.52
		c1.07,0.83,2.4,1.13,4.01,0.94c1.61-0.19,2.93-0.71,3.95-1.54c1.02-0.83,2.19-2.36,3.48-4.54c0.97-1.63,2.19-3.32,3.64-5.02
		c1.45-1.71,3.12-3.37,5-4.96c1.88-1.59,3.83-3.08,5.87-4.46c2.04-1.38,4.12-2.55,6.27-3.54c-0.43,0.51-0.75,0.83-0.96,0.95
		c-1.22,1.27-1.83,1.91-3.05,3.23c-0.64,0.6-1.4,1.46-2.25,2.59c-0.86,1.13-1.54,2.26-2.1,3.17c-0.76,1.24-1.43,2.28-1.7,3.02
		c-0.27,0.74-0.41,1.5-0.41,2.26c0,1.18,0.55,2.12,1.67,2.8c1.12,0.68,2.54,0.92,4.26,0.74c1.61-0.16,2.95-0.65,4.03-1.43
		c1.07-0.78,2.64-2.3,4.68-4.44c2.8-3.19,5.56-5.66,8.3-7.5c2.73-1.84,5.49-3.26,8.28-4.31c-0.43,0.32-0.7,0.54-0.8,0.65
		c-1.5,1.09-2.73,2.13-3.7,3.09c-0.96,0.96-1.72,1.88-2.25,2.73c-0.54,0.86-0.94,1.71-1.21,2.51c-0.27,0.81-0.41,1.66-0.41,2.54
		c-0.01,1.71,0.95,3.04,2.87,3.91c10.95,4.93,70.28-19.39,106.38-11.62C733.07,186.53,672.4,204.53,671.77,199.67z"/>
</g>
<path class="st2" d="M430.77,70.89c-2.91,0.41-13.9-0.41-13.9-0.41s2.81,1.66,4.01,2.18c-1.38,0.9-0.45,1.85,0.18,2.26
	c0.63,0.41,4.71,1.61,4.71,1.61s-2.15,0.05-4.38,1.45c2.48,0.54,4.56,0.03,4.56,0.03s-0.98,1.04,0.02,2.24
	c-0.8,1.2-1.13,1.99-1.95,2.1c-0.83,0.11-1.45,0.14-2,0.68c-0.55,0.55-1.2,0.14-1.93,0.57c-0.4,0.24-1.03,0.45-1.66,0.76
	c8.12,8.85,17.33,21.71,27.78,27.84c8.31,4.88,18.55,8.47,28.6,11.1c0.72-1.78,1.75-4.3,3.03-7.38c-3.17-4.26-6.11-8.85-8.21-14
	c-10.15-24.83-13.14-54.41-4.86-78.41c-0.5-0.27-0.2-0.71-0.35-1.08c-0.21-0.52,0.35-0.57,0.6-0.65c0.1-0.03,0.41-0.13,0.81-0.3
	c0.75-1.34,1.55-2.62,2.43-3.82c-0.01,0-0.01-0.01-0.02-0.01c-0.33,0-0.43,0.55-0.91,0.5c-0.49-0.04-1.15-0.27-1.42-0.78
	c-0.26-0.5-1.08-0.26-1.53,0c-0.45,0.26-0.71,0.56-0.95,0.31s-0.53-0.94-0.55-1.58c-0.03-0.64,0.74-0.79,1.16-1.85
	s0.31-3.55,0.35-4.24c0.04-0.7,0.69-2.07,0.35-3.01c-0.34-0.94-1.65-2.86-1.84-3.71S462.32,0,462.32,0s-0.31,2.86-0.34,4.23
	c-0.03,1.36-0.18,3.93-0.4,4.77c-0.23,0.85-0.02,1.85-0.43,2.89c-0.4,1.04-0.93,2.09-0.74,3.07c0.19,0.98,0.7,1.23,0.7,1.23
	s0.15,0.43-0.08,0.68c-0.23,0.25-3.42,0.81-4.39,0.21c-1.18-0.72-1.57-1.87-1.57-1.87s-0.11,1.35,0.41,2.6
	c0.53,1.25,1.4,2.02,1.4,2.02s-0.25,0.75,0.45,1.2c0.7,0.45,2.49,0.57,2.49,0.57s-0.66,1.94-1.23,2.35c-0.56,0.41-1.5-0.12-2.3,0.56
	s-1.65,0.57-2.25,1.3c-0.6,0.72-0.39,1.17-0.21,1.17s0.73-0.41,1.13-0.18c0.4,0.23,0.59,0.65,1.16,0.93
	c0.58,0.27,1.18,0.34,1.18,0.34s-1.27,1.58-2.2,1.73c2.29,0.55,3.54-1.53,4.2-1.24c0.65,0.29,0.3,1.85-0.85,2.89
	c-1.15,1.04-4.71,2.67-6.41,2.67c-1.7,0-1.84-0.1-2.22,0.35c-0.38,0.45,0.13,0.86,1.18,1.04c1.05,0.18,1.07,0.55,1.99,0.63
	c0.92,0.08,1.26-0.04,1.26-0.04s-2.8,1.68-1.92,2.5c0.88,0.82,1.39-0.37,2.29-0.39c0.9-0.02,1.41,0.06,1.65,0.55
	s1.78-0.45,2.57-1.49c0.79-1.04,0.06,1.7-0.24,2.27c-0.3,0.57-1.9,2.11-3.36,3.35c-1.47,1.25-4.15,2.72-6.35,2.97
	c-2.2,0.25-3.33-0.06-3.53,0.47c-0.21,0.53,0.23,1.68,1.69,1.96c1.47,0.29,3.19-0.1,3.51,0.21c0.32,0.31-0.73,2.66-1.69,2.9
	c-0.96,0.25-1.5,0.25-1.63,0.98c-0.13,0.74,1.26,1.12,2.12,1.04c0.86-0.08,2.84-1.41,2.84-1.41s-0.62,2.07-0.32,2.88
	c-1.39,1.04-5.75,6.42-5.75,6.42s-0.9-0.63-2.89-1.02c-1.99-0.39-1.84-1.37-1.84-1.37s0.34-0.86,1.75-0.7
	c1.41,0.16,3.98-2.05,4.19-3.01c0.21-0.96-0.56-0.94-0.56-0.94s0.3-1.9-1.63-2.11c-1.94-0.2-2.31-0.88-3.7-1.98
	c-1.39-1.1-1.54-0.92-1.54-0.92s0.79-1.29,1.35-1.45c0.56-0.16,1.82-0.06,2.76-1.25s1.45-1.64,1.79-1.78
	c0.34-0.14,0.32-1.08-0.94-2.17c-1.26-1.08-1.27-1-1.83-1.83c-0.56-0.83-1.24-1.19-1.24-1.19s0.39-1.01,0.21-1.49
	c-0.18-0.48-0.93-0.97-0.9-1.58c0.03-0.61-0.09-2.21-0.88-3.26c-0.79-1.05-0.78-2-0.74-2.51c0.04-0.5,0.01-1.87-0.59-2.43
	s-0.07-1.85-0.58-1.79s-0.19,1.38-0.25,1.88c-0.06,0.5-0.44,0.29-0.51,1.7c-0.08,1.42,0.23,2.52-0.26,3.31
	c-0.49,0.79-1.5,1.96-1.83,3.44c-0.33,1.47,0.59,2,0.59,2s0.4,0.15,0.35,1.01c-0.05,0.86,0.94,1.81,1.18,1.8
	c-0.19,0.87-0.58,1.39-1.42,1.39s-1.47-0.67-2.4,0.26c-0.94,0.93-2.08,0.74-2.25,1.76c-0.18,1.02-0.03,1.58,1.14,1.72
	c1.17,0.14,2.25-0.05,3.37-0.15s1.23-0.07,1.29,0.37s0.43,2.02-0.58,2.57s-4.19,0.94-6.84,0.98c-2.65,0.04-4.75-0.49-4.75-0.49
	s3.83,2.52,5.47,2.82c-2.8,0.59-2.14,2.78-1.65,3.05c0.49,0.27,2.07-0.41,2.8-0.27c0.73,0.14,2.27,1.12,2.91,1.51
	c0.64,0.39,2.18,0.65,2.18,0.65s-0.17,0.57-0.53,0.86s-1.6-0.29-2.39,0.59c-0.79,0.88-1.41,1-1.97,1.02
	c-0.56,0.02-1.26-0.14-2.56,0.89c-1.3,1.02-4.23,0.16-4.67,0.7c-0.44,0.53-0.6,1.27,0.33,1.62c0.93,0.35,7.95,1.28,7.95,1.28
	s-1.27,0.95-2.1,2.08s-0.21,2.02,0.75,1.98c0.96-0.04,4.94-0.76,5.07-0.43C436.86,68.82,433.68,70.48,430.77,70.89z"/>
<g>
	<path class="st0" d="M491.5,81.66c0,0-1.16-0.04-1.37,0.5c-0.2,0.55,0.16,1.39,1.08,1.53c0.2,0.03,0.36,0.08,0.49,0.13
		c0.46-1.02,0.93-2.05,1.4-3.07c-0.97-0.02-2.71-0.2-3.6-1.06C490.44,81.32,491.5,81.66,491.5,81.66z"/>
	<path class="st0" d="M493.22,79.65c0.15-0.01,0.27-0.02,0.4-0.03c0.47-1.02,0.94-2.04,1.41-3.06c-0.21,0.07-0.41,0.14-0.53,0.28
		c-0.27,0.32-0.49,0.4-0.94,0.4s-0.53,0.3-0.87,0.32c-0.34,0.02-0.83,0-0.98,0.31c-0.15,0.31-0.06,0.71-0.06,0.71
		s-0.8-0.1-1.08-0.29C491.15,78.99,492.31,79.71,493.22,79.65z"/>
	<path class="st0" d="M490.43,86.65c0.18-0.39,0.35-0.78,0.53-1.18c-1.3-0.31-2.72-0.74-2.72-0.74S489.38,86.11,490.43,86.65z"/>
	<path class="st0" d="M477.84,115.92c3.06-7.39,7.54-17.97,12.56-29.19c-2.44-0.12-8.31-2.17-9.39-3.57
		c1.95,0.31,5.71-0.14,7.21-0.84c-4.9-0.41-10.61-2.72-12.02-4.21c3.68,1.23,6.69,0.08,6.69,0.08s-2.35-1.55-3.95-2.33
		c2.12-0.02,3.34,1.08,4.38,1.37c1.03,0.29,5.82,0.72,7.2-0.12c1.37-0.84,2.29-2.09,2.01-2.33s-1.45,0.47-3.08,0.35
		c-1.63-0.12-3.44-1.37-4.72-1.68c-1.28-0.31-1.62-1.47-1.62-1.47s0.28,0.12,1.82-0.47s2.5-0.16,3.57-0.61
		c1.07-0.45,2.8-1.43,2.37-2.09c-0.43-0.65-2.46,0.59-3.79,0.41s-3.34-0.39-4.56-0.9c-1.22-0.51-2.46-0.37-3.51-1
		c-1.05-0.63-1.88-1.33-2.97-1.58c-1.09-0.25-2.09-2.58-2.09-2.58s1.47,0.12,1.99-0.29c0.53-0.41,0.51-0.76,0.51-0.76
		s2.71,1.06,4.28,1.19c1.58,0.12,2.01-0.37,2.63-0.55s1.86-0.27,1.94-0.8s-5.26-2.52-5.26-2.52s2.99,0.08,5.43-0.7
		c-2.59,0.02-7.25-0.5-10.18-2.22s-3.56-3.03-3.56-3.03s1.65,0.26,2.05-0.19c0.39-0.45-1.52-2.23-1.52-2.23s1.9,0.7,3.1,0.68
		c1.2-0.02,3.08,0.04,4.75-2.09c-1.2-0.25-2.72-1.21-2.72-1.21s4.21-0.47,5.88-3.72c-1.22,0.9-2.8,0.92-3.63,0.59
		c-0.83-0.33-2.09-0.9-2.91-0.82c-0.83,0.08-1.86-1.21-2.67-1.21c-0.81,0-0.96,0.59-2.42,0.39s-2.18-0.78-2.18-1
		s0.64-1.14-0.52-2.19c-1.16-1.05-2.18-3.16-2.03-3.34s0.78,0.49,1.45,0.46c0.68-0.03,1.54,0.49,2.24,0.52
		c0.7,0.03,0.85-0.33,1.54-0.2c0.69,0.12,1.09,0.19,2.35,0.1c1.26-0.1,2.37-1.8,2.37-1.8s-0.94,0.48-2.27,0.34s-2.22-0.59-2.22-0.59
		s1.97,0.04,2.76-1.09c-1.18,0.31-4.8-0.44-5.47-0.86c-0.68-0.42-1.21-2.9-2.93-3.53s-1.93-1.64-1.93-1.64s2.44,0.59,3.72-0.57
		c1.28-1.16,1.15-2.54,0.81-2.56c-0.34-0.03-0.38,0.44-1.08,0.34c-0.7-0.1-1.15-1.23-1.15-1.23l0.91,0.08c0,0-0.34-1.04-2.2-1.17
		c-0.53-0.04-0.85-0.12-1.05-0.23c-8.27,24-5.29,53.58,4.86,78.41C471.73,107.07,474.67,111.66,477.84,115.92z"/>
	<path class="st0" d="M493.67,72.08c0.34,0.16,0.77,0.11,0.94,0.3c-0.2,0.27-1.05,0.3-1.05,0.3s0.59,0.27,1.38,0.26
		c0.79-0.01,1.42-0.02,1.42-0.02s-0.78,0.56-1.48,0.87c-0.7,0.31-0.64,0.55-1.04,0.58s-0.63,0.07-0.7,0.38s0.24,0.78,0.91,0.88
		c0.44,0.07,1.02,0.05,1.38,0.04c0.79-1.71,1.6-3.41,2.4-5.1c-0.18-0.16-0.26-0.26-0.25-0.31c0.01-0.04,0.28-0.18,0.62-0.47
		c0.24-0.49,0.47-0.98,0.71-1.48c-0.57,0.31-0.79,0.71-0.79,0.71s0.02-2.57-0.04-3.26c-0.06-0.7-0.68-0.7-0.68-1
		c0-0.31-0.11-3.13-0.72-3.09c-0.61,0.04-0.25,1.25-0.05,1.49c0.2,0.23,0.01,0.78-0.25,1.24c-0.26,0.46-0.29,1.01-0.29,1.24
		s-0.48,0.76-0.48,0.91s0.41,0.91,0.29,1.42c-0.13,0.5-0.35-0.14-0.25,0.89s0.68,0.59,0.6,0.91s-0.47,0.14-0.79,0.34
		c-0.32,0.2-0.32,0.4-0.51,0.4c-0.19,0.01-1.19-0.15-1.41,0.15c-0.23,0.3-0.21,0.5-0.21,0.5s-0.4-0.19-0.66-0.55
		C492.95,71.68,493.32,71.91,493.67,72.08z"/>
</g>
</svg>
