<?xml version="1.0" encoding="utf-8"?>
<!-- Generator: Adobe Illustrator 23.0.3, SVG Export Plug-In . SVG Version: 6.00 Build 0)  -->
<svg version="1.1" id="Слой_1" xmlns="http://www.w3.org/2000/svg" xmlns:xlink="http://www.w3.org/1999/xlink" x="0px" y="0px"
	 viewBox="0 0 30 30" style="enable-background:new 0 0 30 30;" xml:space="preserve">
<style type="text/css">
	.st0{fill-rule:evenodd;clip-rule:evenodd;fill:#FFFFFF;}
</style>
<path class="st0" d="M15,0C6.7,0,0,6.7,0,15s6.7,15,15,15c8.3,0,15-6.7,15-15S23.3,0,15,0z M7.2,18.7H5c-0.4,0-0.8-0.4-0.8-0.8v-5.8
	c0-0.4,0.4-0.8,0.8-0.8h2.2V18.7z M15.5,23c0,0.5-0.4,0.8-0.8,0.8c-0.2,0-0.4-0.1-0.5-0.2L8.3,19V11l5.9-4.6
	c0.4-0.3,0.9-0.2,1.2,0.1c0.1,0.1,0.2,0.3,0.2,0.5V23z M19.2,19.2c-0.2,0-0.4-0.1-0.6-0.2c-0.3-0.3-0.3-0.8,0-1.1
	c1.6-1.6,1.6-4.2,0-5.7c-0.3-0.3-0.3-0.8,0-1.1c0.3-0.3,0.8-0.3,1.1,0c2.2,2.2,2.2,5.8,0,8C19.6,19.1,19.4,19.2,19.2,19.2z
	 M22.4,21.6c-0.2,0.2-0.4,0.2-0.6,0.2c-0.2,0-0.4-0.1-0.6-0.2c-0.3-0.3-0.3-0.8,0-1.1c3-3,3-8,0-11c-0.3-0.3-0.3-0.8,0-1.1
	s0.8-0.3,1.1,0C26.1,12,26.1,18,22.4,21.6z"/>
</svg>
