<svg xmlns="http://www.w3.org/2000/svg" width="30" height="30" viewBox="0 0 30 30">
  <metadata><?xpacket begin="﻿" id="W5M0MpCehiHzreSzNTczkc9d"?>
<x:xmpmeta xmlns:x="adobe:ns:meta/" x:xmptk="Adobe XMP Core 5.6-c142 79.160924, 2017/07/13-01:06:39        ">
   <rdf:RDF xmlns:rdf="http://www.w3.org/1999/02/22-rdf-syntax-ns#">
      <rdf:Description rdf:about=""/>
   </rdf:RDF>
</x:xmpmeta>
                                                                                                    
                                                                                                    
                                                                                                    
                                                                                                    
                                                                                                    
                                                                                                    
                                                                                                    
                                                                                                    
                                                                                                    
                                                                                                    
                                                                                                    
                                                                                                    
                                                                                                    
                                                                                                    
                                                                                                    
                                                                                                    
                                                                                                    
                                                                                                    
                                                                                                    
                                                                                                    
                           
<?xpacket end="w"?></metadata>
<defs>
    <style>
      .cls-1 {
        fill: #fff;
        fill-rule: evenodd;
      }
    </style>
  </defs>
  <path id="sound_off" data-name="sound off" class="cls-1" d="M460.009,892.011a15,15,0,1,0,15,15A15,15,0,0,0,460.009,892.011Zm-7.844,18.72h-2.2a0.8,0.8,0,0,1-.8-0.8V904.1a0.8,0.8,0,0,1,.8-0.8h2.2v7.439Zm8.382,4.244a0.826,0.826,0,0,1-1.338.648l-5.876-4.638v-7.947l5.876-4.638a0.826,0.826,0,0,1,1.338.648v15.927Zm9.962-4.01a0.858,0.858,0,0,1-1.21-.043l-2.47-2.654-2.47,2.654a0.856,0.856,0,0,1-1.253-1.167l2.554-2.743-2.554-2.744a0.856,0.856,0,1,1,1.253-1.166l2.47,2.653,2.47-2.653a0.856,0.856,0,1,1,1.253,1.166L468,907.012l2.554,2.743A0.856,0.856,0,0,1,470.509,910.965Z" transform="translate(-445 -892)"/>
</svg>
