<svg xmlns="http://www.w3.org/2000/svg" width="26" height="26" viewBox="0 0 26 26">
  <metadata><?xpacket begin="﻿" id="W5M0MpCehiHzreSzNTczkc9d"?>
<x:xmpmeta xmlns:x="adobe:ns:meta/" x:xmptk="Adobe XMP Core 5.6-c142 79.160924, 2017/07/13-01:06:39        ">
   <rdf:RDF xmlns:rdf="http://www.w3.org/1999/02/22-rdf-syntax-ns#">
      <rdf:Description rdf:about=""/>
   </rdf:RDF>
</x:xmpmeta>
                                                                                                    
                                                                                                    
                                                                                                    
                                                                                                    
                                                                                                    
                                                                                                    
                                                                                                    
                                                                                                    
                                                                                                    
                                                                                                    
                                                                                                    
                                                                                                    
                                                                                                    
                                                                                                    
                                                                                                    
                                                                                                    
                                                                                                    
                                                                                                    
                                                                                                    
                                                                                                    
                           
<?xpacket end="w"?></metadata>
<defs>
    <style>
      .cls-1 {
        fill: #fff;
        fill-rule: evenodd;
      }
    </style>
  </defs>
  <path id="trip" class="cls-1" d="M575.6,116.162a5.3,5.3,0,0,0-3.6,4.752h0a5.3,5.3,0,0,0-3.6-4.752A9.368,9.368,0,0,1,575.6,116.162Zm4.439,4.846a3.245,3.245,0,1,1-3.245-3.245A3.245,3.245,0,0,1,580.041,121.008Zm-1.544,0a1.7,1.7,0,0,0-1.7-1.7h0A1.7,1.7,0,1,0,578.5,121.007Zm-8.047,0a3.245,3.245,0,1,1-3.245-3.245A3.245,3.245,0,0,1,570.45,121.008Zm-1.544,0a1.7,1.7,0,1,0-1.7,1.7A1.7,1.7,0,0,0,568.906,121.008ZM585,120a13,13,0,1,1-13-13A13,13,0,0,1,585,120Zm-3.408,1.008a4.773,4.773,0,0,0-1.563-3.544h0l1.569-1.707h-3.479a10.871,10.871,0,0,0-12.227,0h-3.487l1.568,1.707a4.795,4.795,0,1,0,6.49,7.06L572,126.2l1.537-1.672A4.8,4.8,0,0,0,581.592,121.008Z" transform="translate(-559 -107)"/>
</svg>
