<svg xmlns="http://www.w3.org/2000/svg" width="26" height="26" viewBox="0 0 26 26">
  <metadata><?xpacket begin="﻿" id="W5M0MpCehiHzreSzNTczkc9d"?>
<x:xmpmeta xmlns:x="adobe:ns:meta/" x:xmptk="Adobe XMP Core 5.6-c142 79.160924, 2017/07/13-01:06:39        ">
   <rdf:RDF xmlns:rdf="http://www.w3.org/1999/02/22-rdf-syntax-ns#">
      <rdf:Description rdf:about=""/>
   </rdf:RDF>
</x:xmpmeta>
                                                                                                    
                                                                                                    
                                                                                                    
                                                                                                    
                                                                                                    
                                                                                                    
                                                                                                    
                                                                                                    
                                                                                                    
                                                                                                    
                                                                                                    
                                                                                                    
                                                                                                    
                                                                                                    
                                                                                                    
                                                                                                    
                                                                                                    
                                                                                                    
                                                                                                    
                                                                                                    
                           
<?xpacket end="w"?></metadata>
<defs>
    <style>
      .cls-1 {
        fill: #fff;
        fill-rule: evenodd;
      }
    </style>
  </defs>
  <path id="youtube" class="cls-1" d="M539,107a13,13,0,1,0,13,13A13,13,0,0,0,539,107Zm8.271,17.183a2.166,2.166,0,0,1-1.527,1.537,62.657,62.657,0,0,1-13.488,0,2.166,2.166,0,0,1-1.527-1.537,24.316,24.316,0,0,1,0-8.366,2.166,2.166,0,0,1,1.526-1.537,62.666,62.666,0,0,1,13.489,0,2.163,2.163,0,0,1,1.526,1.537A24.482,24.482,0,0,1,547.271,124.183Zm-10.036-6.749L541.746,120l-4.511,2.566v-5.132Z" transform="translate(-526 -107)"/>
</svg>
